<svg width="580" height="432" fill="none" xmlns="http://www.w3.org/2000/svg">
  <circle cx="48" cy="72" r="8" fill="#fff" fill-opacity=".08"/>
  <circle cx="80" cy="72" r="8" fill="#fff" fill-opacity=".08"/>
  <circle cx="112" cy="72" r="8" fill="#43A1F7"/>
  <circle cx="112" cy="72" r="8" fill="url(#a)"/>
  <circle cx="144" cy="72" r="8" fill="#fff" fill-opacity=".08"/>
  <circle cx="272" cy="72" r="8" fill="#fff" fill-opacity=".08"/>
  <circle cx="304" cy="72" r="8" fill="#fff" fill-opacity=".08"/>
  <circle cx="336" cy="72" r="8" fill="#fff" fill-opacity=".08"/>
  <circle cx="368" cy="72" r="8" fill="#fff" fill-opacity=".08"/>
  <circle cx="400" cy="72" r="8" fill="#fff" fill-opacity=".08"/>
  <circle cx="48" cy="104" r="8" fill="#fff" fill-opacity=".08"/>
  <circle cx="80" cy="104" r="8" fill="#fff" fill-opacity=".08"/>
  <circle cx="112" cy="104" r="8" fill="#fff" fill-opacity=".08"/>
  <circle cx="144" cy="104" r="8" fill="#fff" fill-opacity=".08"/>
  <circle cx="176" cy="104" r="8" fill="#fff" fill-opacity=".08"/>
  <circle cx="240" cy="104" r="8" fill="#fff" fill-opacity=".08"/>
  <circle cx="272" cy="104" r="8" fill="#fff" fill-opacity=".08"/>
  <circle cx="304" cy="104" r="8" fill="#43A1F7"/>
  <circle cx="304" cy="104" r="8" fill="url(#b)"/>
  <circle cx="336" cy="104" r="8" fill="#fff" fill-opacity=".08"/>
  <circle cx="368" cy="104" r="8" fill="#fff" fill-opacity=".08"/>
  <circle cx="400" cy="104" r="8" fill="#fff" fill-opacity=".08"/>
  <circle cx="432" cy="104" r="8" fill="#fff" fill-opacity=".08"/>
  <circle cx="496" cy="104" r="8" fill="#fff" fill-opacity=".08"/>
  <circle cx="112" cy="136" r="8" fill="#fff" fill-opacity=".08"/>
  <circle cx="144" cy="136" r="8" fill="#fff" fill-opacity=".08"/>
  <circle cx="176" cy="136" r="8" fill="#fff" fill-opacity=".08"/>
  <circle cx="176" cy="136" r="8" fill="url(#c)"/>
  <circle cx="208" cy="136" r="8" fill="#fff" fill-opacity=".08"/>
  <circle cx="240" cy="136" r="8" fill="#fff" fill-opacity=".08"/>
  <circle cx="272" cy="136" r="8" fill="#fff" fill-opacity=".08"/>
  <circle cx="304" cy="136" r="8" fill="#fff" fill-opacity=".08"/>
  <circle cx="336" cy="136" r="8" fill="#fff" fill-opacity=".08"/>
  <circle cx="368" cy="136" r="8" fill="#fff" fill-opacity=".08"/>
  <circle cx="400" cy="136" r="8" fill="#fff" fill-opacity=".08"/>
  <circle cx="432" cy="136" r="8" fill="#fff" fill-opacity=".08"/>
  <circle cx="464" cy="136" r="8" fill="#fff" fill-opacity=".08"/>
  <circle cx="496" cy="136" r="8" fill="#fff" fill-opacity=".08"/>
  <circle cx="144" cy="168" r="8" fill="#fff" fill-opacity=".08"/>
  <circle cx="176" cy="168" r="8" fill="#fff" fill-opacity=".08"/>
  <circle cx="208" cy="168" r="8" fill="#fff" fill-opacity=".08"/>
  <circle cx="240" cy="168" r="8" fill="#fff" fill-opacity=".08"/>
  <circle cx="272" cy="168" r="8" fill="#fff" fill-opacity=".08"/>
  <circle cx="304" cy="168" r="8" fill="#fff" fill-opacity=".08"/>
  <circle cx="336" cy="168" r="8" fill="#fff" fill-opacity=".08"/>
  <circle cx="368" cy="168" r="8" fill="#fff" fill-opacity=".08"/>
  <circle cx="400" cy="168" r="8" fill="#43A1F7"/>
  <circle cx="400" cy="168" r="8" fill="url(#d)"/>
  <circle cx="432" cy="168" r="8" fill="#fff" fill-opacity=".08"/>
  <circle cx="464" cy="168" r="8" fill="#fff" fill-opacity=".08"/>
  <circle cx="48" cy="200" r="8" fill="#fff" fill-opacity=".08"/>
  <circle cx="80" cy="200" r="8" fill="#fff" fill-opacity=".08"/>
  <circle cx="112" cy="200" r="8" fill="#fff" fill-opacity=".08"/>
  <circle cx="144" cy="200" r="8" fill="#fff" fill-opacity=".08"/>
  <circle cx="176" cy="200" r="8" fill="#fff" fill-opacity=".08"/>
  <circle cx="208" cy="200" r="8" fill="#fff" fill-opacity=".08"/>
  <circle cx="240" cy="200" r="8" fill="#fff" fill-opacity=".08"/>
  <circle cx="272" cy="200" r="8" fill="#fff" fill-opacity=".08"/>
  <circle cx="272" cy="200" r="8" fill="url(#e)"/>
  <circle cx="304" cy="200" r="8" fill="#fff" fill-opacity=".08"/>
  <circle cx="336" cy="200" r="8" fill="#fff" fill-opacity=".08"/>
  <circle cx="368" cy="200" r="8" fill="#fff" fill-opacity=".08"/>
  <circle cx="400" cy="200" r="8" fill="#fff" fill-opacity=".08"/>
  <circle cx="432" cy="200" r="8" fill="#fff" fill-opacity=".08"/>
  <circle cx="464" cy="200" r="8" fill="#fff" fill-opacity=".08"/>
  <circle cx="496" cy="200" r="8" fill="#fff" fill-opacity=".08"/>
  <circle cx="48" cy="232" r="8" fill="#fff" fill-opacity=".08"/>
  <circle cx="80" cy="232" r="8" fill="#fff" fill-opacity=".08"/>
  <circle cx="112" cy="232" r="8" fill="#43A1F7"/>
  <circle cx="112" cy="232" r="8" fill="url(#f)"/>
  <circle cx="144" cy="232" r="8" fill="#fff" fill-opacity=".08"/>
  <circle cx="176" cy="232" r="8" fill="#fff" fill-opacity=".08"/>
  <circle cx="208" cy="232" r="8" fill="#fff" fill-opacity=".08"/>
  <circle cx="240" cy="232" r="8" fill="#fff" fill-opacity=".08"/>
  <circle cx="272" cy="232" r="8" fill="#fff" fill-opacity=".08"/>
  <circle cx="304" cy="232" r="8" fill="#fff" fill-opacity=".08"/>
  <circle cx="336" cy="232" r="8" fill="#fff" fill-opacity=".08"/>
  <circle cx="368" cy="232" r="8" fill="#fff" fill-opacity=".08"/>
  <circle cx="400" cy="232" r="8" fill="#fff" fill-opacity=".08"/>
  <circle cx="432" cy="232" r="8" fill="#fff" fill-opacity=".08"/>
  <circle cx="48" cy="264" r="8" fill="#fff" fill-opacity=".08"/>
  <circle cx="80" cy="264" r="8" fill="#fff" fill-opacity=".08"/>
  <circle cx="112" cy="264" r="8" fill="#fff" fill-opacity=".08"/>
  <circle cx="144" cy="264" r="8" fill="#fff" fill-opacity=".08"/>
  <circle cx="176" cy="264" r="8" fill="#fff" fill-opacity=".08"/>
  <circle cx="208" cy="264" r="8" fill="#fff" fill-opacity=".08"/>
  <circle cx="240" cy="264" r="8" fill="#fff" fill-opacity=".08"/>
  <circle cx="272" cy="264" r="8" fill="#43A1F7"/>
  <circle cx="272" cy="264" r="8" fill="url(#g)"/>
  <circle cx="304" cy="264" r="8" fill="#fff" fill-opacity=".08"/>
  <circle cx="336" cy="264" r="8" fill="#fff" fill-opacity=".08"/>
  <circle cx="368" cy="264" r="8" fill="#fff" fill-opacity=".08"/>
  <circle cx="400" cy="264" r="8" fill="#fff" fill-opacity=".08"/>
  <circle cx="432" cy="264" r="8" fill="#fff" fill-opacity=".08"/>
  <circle cx="496" cy="264" r="8" fill="#fff" fill-opacity=".08"/>
  <circle cx="80" cy="296" r="8" fill="#fff" fill-opacity=".08"/>
  <circle cx="112" cy="296" r="8" fill="#fff" fill-opacity=".08"/>
  <circle cx="144" cy="296" r="8" fill="#fff" fill-opacity=".08"/>
  <circle cx="176" cy="296" r="8" fill="#fff" fill-opacity=".08"/>
  <circle cx="208" cy="296" r="8" fill="#fff" fill-opacity=".08"/>
  <circle cx="240" cy="296" r="8" fill="#fff" fill-opacity=".08"/>
  <circle cx="272" cy="296" r="8" fill="#fff" fill-opacity=".08"/>
  <circle cx="304" cy="296" r="8" fill="#fff" fill-opacity=".08"/>
  <circle cx="336" cy="296" r="8" fill="#fff" fill-opacity=".08"/>
  <circle cx="368" cy="296" r="8" fill="#fff" fill-opacity=".08"/>
  <circle cx="400" cy="296" r="8" fill="#fff" fill-opacity=".08"/>
  <circle cx="432" cy="296" r="8" fill="#43A1F7"/>
  <circle cx="432" cy="296" r="8" fill="url(#h)"/>
  <circle cx="464" cy="296" r="8" fill="#fff" fill-opacity=".08"/>
  <circle cx="496" cy="296" r="8" fill="#fff" fill-opacity=".08"/>
  <circle cx="112" cy="328" r="8" fill="#fff" fill-opacity=".08"/>
  <circle cx="144" cy="328" r="8" fill="#fff" fill-opacity=".08"/>
  <circle cx="176" cy="328" r="8" fill="#fff" fill-opacity=".08"/>
  <circle cx="208" cy="328" r="8" fill="#43A1F7"/>
  <circle cx="208" cy="328" r="8" fill="url(#i)"/>
  <circle cx="240" cy="328" r="8" fill="#fff" fill-opacity=".08"/>
  <circle cx="272" cy="328" r="8" fill="#fff" fill-opacity=".08"/>
  <circle cx="304" cy="328" r="8" fill="#fff" fill-opacity=".08"/>
  <circle cx="368" cy="328" r="8" fill="#fff" fill-opacity=".08"/>
  <circle cx="400" cy="328" r="8" fill="#fff" fill-opacity=".08"/>
  <circle cx="432" cy="328" r="8" fill="#fff" fill-opacity=".08"/>
  <circle cx="464" cy="328" r="8" fill="#fff" fill-opacity=".08"/>
  <circle cx="496" cy="328" r="8" fill="#fff" fill-opacity=".08"/>
  <circle cx="48" cy="360" r="8" fill="#fff" fill-opacity=".08"/>
  <circle cx="80" cy="360" r="8" fill="#fff" fill-opacity=".08"/>
  <circle cx="80" cy="360" r="8" fill="url(#j)"/>
  <circle cx="112" cy="360" r="8" fill="#fff" fill-opacity=".08"/>
  <circle cx="144" cy="360" r="8" fill="#fff" fill-opacity=".08"/>
  <circle cx="176" cy="360" r="8" fill="#fff" fill-opacity=".08"/>
  <circle cx="208" cy="360" r="8" fill="#fff" fill-opacity=".08"/>
  <circle cx="240" cy="360" r="8" fill="#fff" fill-opacity=".08"/>
  <circle cx="272" cy="360" r="8" fill="#fff" fill-opacity=".08"/>
  <circle cx="464" cy="360" r="8" fill="#fff" fill-opacity=".08"/>
  <defs>
    <linearGradient id="a" x1="112.09" y1="80" x2="120.081" y2="71.629" gradientUnits="userSpaceOnUse">
      <stop stop-color="#FFC657"/>
      <stop offset="1" stop-color="#FFD977"/>
    </linearGradient>
    <linearGradient id="b" x1="304.09" y1="112" x2="312.081" y2="103.628" gradientUnits="userSpaceOnUse">
      <stop stop-color="#FFC657"/>
      <stop offset="1" stop-color="#FFD977"/>
    </linearGradient>
    <linearGradient id="c" x1="176.09" y1="144" x2="184.081" y2="135.628" gradientUnits="userSpaceOnUse">
      <stop stop-color="#FFC657"/>
      <stop offset="1" stop-color="#FFD977"/>
    </linearGradient>
    <linearGradient id="d" x1="400.09" y1="176" x2="408.081" y2="167.628" gradientUnits="userSpaceOnUse">
      <stop stop-color="#FFC657"/>
      <stop offset="1" stop-color="#FFD977"/>
    </linearGradient>
    <linearGradient id="e" x1="272.09" y1="208" x2="280.081" y2="199.628" gradientUnits="userSpaceOnUse">
      <stop stop-color="#FFC657"/>
      <stop offset="1" stop-color="#FFD977"/>
    </linearGradient>
    <linearGradient id="f" x1="112.09" y1="240" x2="120.081" y2="231.628" gradientUnits="userSpaceOnUse">
      <stop stop-color="#FFC657"/>
      <stop offset="1" stop-color="#FFD977"/>
    </linearGradient>
    <linearGradient id="g" x1="272.09" y1="272" x2="280.081" y2="263.628" gradientUnits="userSpaceOnUse">
      <stop stop-color="#FFC657"/>
      <stop offset="1" stop-color="#FFD977"/>
    </linearGradient>
    <linearGradient id="h" x1="432.09" y1="304" x2="440.081" y2="295.628" gradientUnits="userSpaceOnUse">
      <stop stop-color="#FFC657"/>
      <stop offset="1" stop-color="#FFD977"/>
    </linearGradient>
    <linearGradient id="i" x1="208.09" y1="336" x2="216.081" y2="327.628" gradientUnits="userSpaceOnUse">
      <stop stop-color="#FFC657"/>
      <stop offset="1" stop-color="#FFD977"/>
    </linearGradient>
    <linearGradient id="j" x1="80.09" y1="368" x2="88.081" y2="359.628" gradientUnits="userSpaceOnUse">
      <stop stop-color="#FFC657"/>
      <stop offset="1" stop-color="#FFD977"/>
    </linearGradient>
  </defs>
</svg>
