<svg width="78" height="78" fill="none" xmlns="http://www.w3.org/2000/svg"><rect x="3" y="3" width="72" height="72" rx="36" fill="#fff" fill-opacity=".08"/><path d="M54.875 33.871c.716-4.79-2.931-7.366-7.919-9.084l1.618-6.49-3.95-.984-1.575 6.319a163.381 163.381 0 0 0-3.165-.745l1.586-6.36-3.948-.985-1.619 6.487c-.86-.195-1.703-.389-2.522-.592l.004-.02-5.447-1.361-1.051 4.22s2.93.671 2.869.712c1.6.4 1.889 1.459 1.84 2.298l-1.842 7.393c.11.028.253.069.41.132-.131-.033-.272-.069-.417-.103l-2.583 10.356c-.196.486-.692 1.216-1.81.939.04.057-2.872-.717-2.872-.717l-1.961 4.522 5.14 1.282c.957.24 1.894.49 2.817.726l-1.634 6.564 3.945.985 1.62-6.495a142.8 142.8 0 0 0 3.148.817l-1.614 6.464 3.95.984 1.635-6.551c6.736 1.275 11.802.76 13.934-5.332 1.717-4.906-.086-7.735-3.63-9.58 2.581-.596 4.526-2.293 5.044-5.8l-.001-.001Zm-9.026 12.656c-1.221 4.906-9.48 2.254-12.158 1.59l2.169-8.697c2.678.669 11.265 1.991 9.989 7.107ZM47.07 33.8c-1.114 4.462-7.988 2.195-10.218 1.64l1.966-7.888c2.23.556 9.412 1.594 8.252 6.248Z" fill="#fff"/><rect x="1.5" y="1.5" width="75" height="75" rx="37.5" stroke="#fff" stroke-opacity=".12" stroke-width="3"/></svg>