<svg width="580" height="512" fill="none" xmlns="http://www.w3.org/2000/svg"><circle cx="48" cy="112" r="8" fill="#fff" fill-opacity=".08"/><circle cx="80" cy="112" r="8" fill="#fff" fill-opacity=".08"/><circle cx="112" cy="112" r="8" fill="#43A1F7"/><circle cx="112" cy="112" r="8" fill="url('#paint0_linear_1_1786')"/><circle cx="144" cy="112" r="8" fill="#fff" fill-opacity=".08"/><circle cx="272" cy="112" r="8" fill="#fff" fill-opacity=".08"/><circle cx="304" cy="112" r="8" fill="#fff" fill-opacity=".08"/><circle cx="336" cy="112" r="8" fill="#fff" fill-opacity=".08"/><circle cx="368" cy="112" r="8" fill="#fff" fill-opacity=".08"/><circle cx="400" cy="112" r="8" fill="#fff" fill-opacity=".08"/><circle cx="48" cy="144" r="8" fill="#fff" fill-opacity=".08"/><circle cx="80" cy="144" r="8" fill="#fff" fill-opacity=".08"/><circle cx="112" cy="144" r="8" fill="#fff" fill-opacity=".08"/><circle cx="144" cy="144" r="8" fill="#fff" fill-opacity=".08"/><circle cx="176" cy="144" r="8" fill="#fff" fill-opacity=".08"/><circle cx="240" cy="144" r="8" fill="#fff" fill-opacity=".08"/><circle cx="272" cy="144" r="8" fill="#fff" fill-opacity=".08"/><circle cx="304" cy="144" r="8" fill="#43A1F7"/><circle cx="304" cy="144" r="8" fill="url('#paint1_linear_1_1786')"/><circle cx="336" cy="144" r="8" fill="#fff" fill-opacity=".08"/><circle cx="368" cy="144" r="8" fill="#fff" fill-opacity=".08"/><circle cx="400" cy="144" r="8" fill="#fff" fill-opacity=".08"/><circle cx="432" cy="144" r="8" fill="#fff" fill-opacity=".08"/><circle cx="496" cy="144" r="8" fill="#fff" fill-opacity=".08"/><circle cx="112" cy="176" r="8" fill="#fff" fill-opacity=".08"/><circle cx="144" cy="176" r="8" fill="#fff" fill-opacity=".08"/><circle cx="176" cy="176" r="8" fill="#fff" fill-opacity=".08"/><circle cx="176" cy="176" r="8" fill="url('#paint2_linear_1_1786')"/><circle cx="208" cy="176" r="8" fill="#fff" fill-opacity=".08"/><circle cx="240" cy="176" r="8" fill="#fff" fill-opacity=".08"/><circle cx="272" cy="176" r="8" fill="#fff" fill-opacity=".08"/><circle cx="304" cy="176" r="8" fill="#fff" fill-opacity=".08"/><circle cx="336" cy="176" r="8" fill="#fff" fill-opacity=".08"/><circle cx="368" cy="176" r="8" fill="#fff" fill-opacity=".08"/><circle cx="400" cy="176" r="8" fill="#fff" fill-opacity=".08"/><circle cx="432" cy="176" r="8" fill="#fff" fill-opacity=".08"/><circle cx="464" cy="176" r="8" fill="#fff" fill-opacity=".08"/><circle cx="496" cy="176" r="8" fill="#fff" fill-opacity=".08"/><circle cx="144" cy="208" r="8" fill="#fff" fill-opacity=".08"/><circle cx="176" cy="208" r="8" fill="#fff" fill-opacity=".08"/><circle cx="208" cy="208" r="8" fill="#fff" fill-opacity=".08"/><circle cx="240" cy="208" r="8" fill="#fff" fill-opacity=".08"/><circle cx="272" cy="208" r="8" fill="#fff" fill-opacity=".08"/><circle cx="304" cy="208" r="8" fill="#fff" fill-opacity=".08"/><circle cx="336" cy="208" r="8" fill="#fff" fill-opacity=".08"/><circle cx="368" cy="208" r="8" fill="#fff" fill-opacity=".08"/><circle cx="400" cy="208" r="8" fill="#43A1F7"/><circle cx="400" cy="208" r="8" fill="url('#paint3_linear_1_1786')"/><circle cx="432" cy="208" r="8" fill="#fff" fill-opacity=".08"/><circle cx="464" cy="208" r="8" fill="#fff" fill-opacity=".08"/><circle cx="48" cy="240" r="8" fill="#fff" fill-opacity=".08"/><circle cx="80" cy="240" r="8" fill="#fff" fill-opacity=".08"/><circle cx="112" cy="240" r="8" fill="#fff" fill-opacity=".08"/><circle cx="144" cy="240" r="8" fill="#fff" fill-opacity=".08"/><circle cx="176" cy="240" r="8" fill="#fff" fill-opacity=".08"/><circle cx="208" cy="240" r="8" fill="#fff" fill-opacity=".08"/><circle cx="240" cy="240" r="8" fill="#fff" fill-opacity=".08"/><circle cx="272" cy="240" r="8" fill="#fff" fill-opacity=".08"/><circle cx="272" cy="240" r="8" fill="url('#paint4_linear_1_1786')"/><circle cx="304" cy="240" r="8" fill="#fff" fill-opacity=".08"/><circle cx="336" cy="240" r="8" fill="#fff" fill-opacity=".08"/><circle cx="368" cy="240" r="8" fill="#fff" fill-opacity=".08"/><circle cx="400" cy="240" r="8" fill="#fff" fill-opacity=".08"/><circle cx="432" cy="240" r="8" fill="#fff" fill-opacity=".08"/><circle cx="464" cy="240" r="8" fill="#fff" fill-opacity=".08"/><circle cx="496" cy="240" r="8" fill="#fff" fill-opacity=".08"/><circle cx="48" cy="272" r="8" fill="#fff" fill-opacity=".08"/><circle cx="80" cy="272" r="8" fill="#fff" fill-opacity=".08"/><circle cx="112" cy="272" r="8" fill="#43A1F7"/><circle cx="112" cy="272" r="8" fill="url('#paint5_linear_1_1786')"/><circle cx="144" cy="272" r="8" fill="#fff" fill-opacity=".08"/><circle cx="176" cy="272" r="8" fill="#fff" fill-opacity=".08"/><circle cx="208" cy="272" r="8" fill="#fff" fill-opacity=".08"/><circle cx="240" cy="272" r="8" fill="#fff" fill-opacity=".08"/><circle cx="272" cy="272" r="8" fill="#fff" fill-opacity=".08"/><circle cx="304" cy="272" r="8" fill="#fff" fill-opacity=".08"/><circle cx="336" cy="272" r="8" fill="#fff" fill-opacity=".08"/><circle cx="368" cy="272" r="8" fill="#fff" fill-opacity=".08"/><circle cx="400" cy="272" r="8" fill="#fff" fill-opacity=".08"/><circle cx="432" cy="272" r="8" fill="#fff" fill-opacity=".08"/><circle cx="48" cy="304" r="8" fill="#fff" fill-opacity=".08"/><circle cx="80" cy="304" r="8" fill="#fff" fill-opacity=".08"/><circle cx="112" cy="304" r="8" fill="#fff" fill-opacity=".08"/><circle cx="144" cy="304" r="8" fill="#fff" fill-opacity=".08"/><circle cx="176" cy="304" r="8" fill="#fff" fill-opacity=".08"/><circle cx="208" cy="304" r="8" fill="#fff" fill-opacity=".08"/><circle cx="240" cy="304" r="8" fill="#fff" fill-opacity=".08"/><circle cx="272" cy="304" r="8" fill="#43A1F7"/><circle cx="272" cy="304" r="8" fill="url('#paint6_linear_1_1786')"/><circle cx="304" cy="304" r="8" fill="#fff" fill-opacity=".08"/><circle cx="336" cy="304" r="8" fill="#fff" fill-opacity=".08"/><circle cx="368" cy="304" r="8" fill="#fff" fill-opacity=".08"/><circle cx="400" cy="304" r="8" fill="#fff" fill-opacity=".08"/><circle cx="432" cy="304" r="8" fill="#fff" fill-opacity=".08"/><circle cx="496" cy="304" r="8" fill="#fff" fill-opacity=".08"/><circle cx="80" cy="336" r="8" fill="#fff" fill-opacity=".08"/><circle cx="112" cy="336" r="8" fill="#fff" fill-opacity=".08"/><circle cx="144" cy="336" r="8" fill="#fff" fill-opacity=".08"/><circle cx="176" cy="336" r="8" fill="#fff" fill-opacity=".08"/><circle cx="208" cy="336" r="8" fill="#fff" fill-opacity=".08"/><circle cx="240" cy="336" r="8" fill="#fff" fill-opacity=".08"/><circle cx="272" cy="336" r="8" fill="#fff" fill-opacity=".08"/><circle cx="304" cy="336" r="8" fill="#fff" fill-opacity=".08"/><circle cx="336" cy="336" r="8" fill="#fff" fill-opacity=".08"/><circle cx="368" cy="336" r="8" fill="#fff" fill-opacity=".08"/><circle cx="400" cy="336" r="8" fill="#fff" fill-opacity=".08"/><circle cx="432" cy="336" r="8" fill="#43A1F7"/><circle cx="432" cy="336" r="8" fill="url('#paint7_linear_1_1786')"/><circle cx="464" cy="336" r="8" fill="#fff" fill-opacity=".08"/><circle cx="496" cy="336" r="8" fill="#fff" fill-opacity=".08"/><circle cx="112" cy="368" r="8" fill="#fff" fill-opacity=".08"/><circle cx="144" cy="368" r="8" fill="#fff" fill-opacity=".08"/><circle cx="176" cy="368" r="8" fill="#fff" fill-opacity=".08"/><circle cx="208" cy="368" r="8" fill="#43A1F7"/><circle cx="208" cy="368" r="8" fill="url('#paint8_linear_1_1786')"/><circle cx="240" cy="368" r="8" fill="#fff" fill-opacity=".08"/><circle cx="272" cy="368" r="8" fill="#fff" fill-opacity=".08"/><circle cx="304" cy="368" r="8" fill="#fff" fill-opacity=".08"/><circle cx="368" cy="368" r="8" fill="#fff" fill-opacity=".08"/><circle cx="400" cy="368" r="8" fill="#fff" fill-opacity=".08"/><circle cx="432" cy="368" r="8" fill="#fff" fill-opacity=".08"/><circle cx="464" cy="368" r="8" fill="#fff" fill-opacity=".08"/><circle cx="496" cy="368" r="8" fill="#fff" fill-opacity=".08"/><circle cx="48" cy="400" r="8" fill="#fff" fill-opacity=".08"/><circle cx="80" cy="400" r="8" fill="#fff" fill-opacity=".08"/><circle cx="80" cy="400" r="8" fill="url('#paint9_linear_1_1786')"/><circle cx="112" cy="400" r="8" fill="#fff" fill-opacity=".08"/><circle cx="144" cy="400" r="8" fill="#fff" fill-opacity=".08"/><circle cx="176" cy="400" r="8" fill="#fff" fill-opacity=".08"/><circle cx="208" cy="400" r="8" fill="#fff" fill-opacity=".08"/><circle cx="240" cy="400" r="8" fill="#fff" fill-opacity=".08"/><circle cx="272" cy="400" r="8" fill="#fff" fill-opacity=".08"/><circle cx="464" cy="400" r="8" fill="#fff" fill-opacity=".08"/><defs><linearGradient id="paint0_linear_1_1786" x1="112.09" y1="120" x2="120.081" y2="111.628" gradientUnits="userSpaceOnUse"><stop stop-color="#FFC657"/><stop offset="1" stop-color="#FFD977"/></linearGradient><linearGradient id="paint1_linear_1_1786" x1="304.09" y1="152" x2="312.081" y2="143.628" gradientUnits="userSpaceOnUse"><stop stop-color="#FFC657"/><stop offset="1" stop-color="#FFD977"/></linearGradient><linearGradient id="paint2_linear_1_1786" x1="176.09" y1="184" x2="184.081" y2="175.628" gradientUnits="userSpaceOnUse"><stop stop-color="#FFC657"/><stop offset="1" stop-color="#FFD977"/></linearGradient><linearGradient id="paint3_linear_1_1786" x1="400.09" y1="216" x2="408.081" y2="207.628" gradientUnits="userSpaceOnUse"><stop stop-color="#FFC657"/><stop offset="1" stop-color="#FFD977"/></linearGradient><linearGradient id="paint4_linear_1_1786" x1="272.09" y1="248" x2="280.081" y2="239.628" gradientUnits="userSpaceOnUse"><stop stop-color="#FFC657"/><stop offset="1" stop-color="#FFD977"/></linearGradient><linearGradient id="paint5_linear_1_1786" x1="112.09" y1="280" x2="120.081" y2="271.628" gradientUnits="userSpaceOnUse"><stop stop-color="#FFC657"/><stop offset="1" stop-color="#FFD977"/></linearGradient><linearGradient id="paint6_linear_1_1786" x1="272.09" y1="312" x2="280.081" y2="303.628" gradientUnits="userSpaceOnUse"><stop stop-color="#FFC657"/><stop offset="1" stop-color="#FFD977"/></linearGradient><linearGradient id="paint7_linear_1_1786" x1="432.09" y1="344" x2="440.081" y2="335.628" gradientUnits="userSpaceOnUse"><stop stop-color="#FFC657"/><stop offset="1" stop-color="#FFD977"/></linearGradient><linearGradient id="paint8_linear_1_1786" x1="208.09" y1="376" x2="216.081" y2="367.628" gradientUnits="userSpaceOnUse"><stop stop-color="#FFC657"/><stop offset="1" stop-color="#FFD977"/></linearGradient><linearGradient id="paint9_linear_1_1786" x1="80.09" y1="408" x2="88.081" y2="399.628" gradientUnits="userSpaceOnUse"><stop stop-color="#FFC657"/><stop offset="1" stop-color="#FFD977"/></linearGradient></defs></svg>