<svg xmlns="http://www.w3.org/2000/svg" viewBox="0 0 163 294"><path fill="#6e43fc" d="M5.39 0h22.39q39.46 3.03 72.04 25.46 25.65 17.67 41.97 44.23 18.58 30.23 21.21 65.67v22.14q-.3 2.07-.41 4.17-.12 2.34-.4 4.34-6.23 44.23-35.33 77.32c-26.74 30.41-65.8 49.19-106.66 49.56q-9.86.09-19.26-.55a.35.34 5 0 1-.32-.37l.12-1.73q.03-.54.53-.32.81.36 1.69.42 9.41.63 19.15.38c41.58-1.08 80.83-21.2 106.7-53.02q26.65-32.79 31.48-74.61c5.22-45.22-10.69-89.24-43.45-121.03q-7.38-7.15-15.41-12.89Q56.6-2.8.91 2.49A.49.49 0 0 1 .37 2V.93a.54.54 0 0 1 .5-.54L5.39 0Z"/></svg>