<svg xmlns="http://www.w3.org/2000/svg" viewBox="0 0 294 512"><g stroke-width="2" fill="none"><path stroke="#437aee" vector-effect="non-scaling-stroke" d="m190.92 11.4-.22-2.98M29.73 142.56q-.25.26-.45.2-.27-.09-.26-.38.02-.24.17-.43.37-.43-.2-.51-.23-.04-.38.14-.98 1.16-2.23 1.19"/><path stroke="#29a3e6" vector-effect="non-scaling-stroke" d="M22.19 352.95q-.67.6-.6 1.64.04.51-.35.86l-.86.78"/><path stroke="#0ecfdc" vector-effect="non-scaling-stroke" d="M146.5 484.22q-.46-.08-.87.09-.46.19-.51.69-.07.75-.64 1.46"/></g><path fill="#3b85ec" d="M246.88 0h17.1L294 2.78v3.03q-52.09-7.72-103.08 5.59l-.22-2.98q21.63-5.65 43.94-7.39Q240.76.55 246.88 0Z"/><path fill="#4a6fef" d="m190.7 8.42.22 2.98C120.6 30.26 62.85 77.65 29.73 142.56q-.25.26-.45.2-.27-.09-.26-.38.02-.24.17-.43.37-.43-.2-.51-.23-.04-.38.14-.98 1.16-2.23 1.19 3.79-7.55 5.78-11.09C66.49 70.72 123.06 26.29 190.7 8.42Z"/><path fill="#3b85ec" d="M29.73 142.56c-32.8 65.87-35.52 142.34-7.54 210.39q-.67.6-.6 1.64.04.51-.35.86l-.86.78Q5.04 320.12 1.23 281 .86 277.25 0 264.87v-17.12q.81-12.92 1.31-17.74 4.71-45.96 25.07-87.24 1.25-.03 2.23-1.19.15-.18.38-.14.57.08.2.51-.15.19-.17.43-.01.29.26.38.2.06.45-.2Z"/><path fill="#17c0e0" d="M22.19 352.95C46.28 410.61 90.31 456.9 146.5 484.22q-.46-.08-.87.09-.46.19-.51.69-.07.75-.64 1.46c-55.93-27.07-99.65-73.38-124.1-130.23l.86-.78q.39-.35.35-.86-.07-1.04.6-1.64Z"/><path fill="#05ded7" d="M146.5 484.22q70.09 33.1 147.5 22.01v3q-15.6 2.18-31.38 2.77h-14.87q-13.39-.86-17.25-1.25-45.18-4.55-86.02-24.29.57-.71.64-1.46.05-.5.51-.69.41-.17.87-.09Z"/></svg>