<svg xmlns="http://www.w3.org/2000/svg" viewBox="0 0 724 363"><g stroke-width="2" fill="none"><path stroke="#2de0d8" vector-effect="non-scaling-stroke" d="M452.55 11.4q-.68.46-.85.88-.19.47-.69.44l-.74-.05q-.66-.04-.74.61-.06.48-.48.71-.51.29-.07.67.07.06.09.14.19.76.68.15l.16-.2a.57.55 20.4 0 1 .48-.21q2.12.11 3.09 2.16"/><path stroke="#0feeb2" vector-effect="non-scaling-stroke" d="m115.29 103.92-.17-.47q-.17-.46-.46-.06-1.23 1.71-2.85 3.05-.06.06 0 .11.01.01-.25.09a.05.05 0 0 1-.05-.08q.51-.48.79-1.1.19-.4.6-.57.79-.32.51-1.37-.07-.26.13-.09.14.11.23.27.1.18.21.01l.95-1.39q.35-.52-.28-.59-.77-.09-.72-.94a.28.28 0 0 0-.46-.23q-.25.21-.58.32-.46.15-.04-.09.18-.1.22-.29.2-.95-.27-1.07"/></g><path fill="#1be8c1" d="M354.38 0h15.37q42.06 1.07 82.8 11.4-.68.46-.85.88-.19.47-.69.44l-.74-.05q-.66-.04-.74.61-.06.48-.48.71-.51.29-.07.67.07.06.09.14.19.76.68.15l.16-.2a.57.55 20.4 0 1 .48-.21q2.12.11 3.09 2.16c-120.82-31.27-247.87 1.04-338.19 87.22l-.17-.47q-.17-.46-.46-.06-1.23 1.71-2.85 3.05-.06.06 0 .11.01.01-.25.09a.05.05 0 0 1-.05-.08q.51-.48.79-1.1.19-.4.6-.57.79-.32.51-1.37-.07-.26.13-.09.14.11.23.27.1.18.21.01l.95-1.39q.35-.52-.28-.59-.77-.09-.72-.94a.28.28 0 0 0-.46-.23q-.25.21-.58.32-.46.15-.04-.09.18-.1.22-.29.2-.95-.27-1.07 27.79-26.28 58.75-45.36Q255.07 2.59 354.38 0Z"/><path fill="#3ed7ee" d="M452.55 11.4q84.91 22.27 148.92 79.13 66.12 58.73 97.95 140.03 23.02 58.82 24.58 123.83V363h-4.91q.01-68.91-24.84-132c-15.11-38.37-37.2-74.54-64.83-105.54Q558.01 45.33 453.48 16.7q-.97-2.05-3.09-2.16a.57.55 20.4 0 0-.48.21l-.16.2q-.49.61-.68-.15-.02-.08-.09-.14-.44-.38.07-.67.42-.23.48-.71.08-.65.74-.61l.74.05q.5.03.69-.44.17-.42.85-.88Z"/><path fill="#02f4a3" d="M112.8 99.43q.47.12.27 1.07-.04.19-.22.29-.42.24.04.09.33-.11.58-.32a.28.28 0 0 1 .46.23q-.05.85.72.94.63.07.28.59l-.95 1.39q-.11.17-.21-.01-.09-.16-.23-.27-.2-.17-.13.09.28 1.05-.51 1.37-.41.17-.6.57-.28.62-.79 1.1a.05.05 0 0 0 .05.08q.26-.08.25-.09-.06-.05 0-.11 1.62-1.34 2.85-3.05.29-.4.46.06l.17.47q-39.44 37.77-65.38 84.51Q5.03 269.29 4.92 363H0v-8.49Q1.72 281.6 30.6 216.1q29.13-66.08 82.2-116.67Z"/></svg>