<svg xmlns="http://www.w3.org/2000/svg" viewBox="0 0 294 163"><g stroke-width="2" fill="none"><path stroke="#20b3e0" vector-effect="non-scaling-stroke" d="M161.96 1.47q0 1.08-.71.93-.79.38-.78 1.02"/><path stroke="#0ad5d9" vector-effect="non-scaling-stroke" d="M28.8 63.74q-.32-.93.31-1.31.27-.15.12-.42l-.13-.26q-.21-.38-.61-.2-.33.15-.81.09"/><path stroke="#3b89eb" vector-effect="non-scaling-stroke" d="M241.48 35.23q-1.13.62-1.51 1.56"/><path stroke="#5363f2" vector-effect="non-scaling-stroke" d="m282.17 90.48-.75-.09q-.55-.06-.56.49-.02.63-.41 1.15"/></g><path fill="#11c9db" d="M161.96 1.47q0 1.08-.71.93-.79.38-.78 1.02C108.26-1.1 59.37 21.36 28.8 63.74q-.32-.93.31-1.31.27-.15.12-.42l-.13-.26q-.21-.38-.61-.2-.33.15-.81.09C57.27 20.88 104.61-1.74 155.01.88q3.5.18 6.95.59Z"/><path fill="#2e9ce5" d="M161.96 1.47q4.05.35 8.04 1 40.24 6.61 71.48 32.76-1.13.62-1.51 1.56Q205.41 8 160.47 3.42q-.01-.64.78-1.02.71.15.71-.93Z"/><path fill="#4775f0" d="M241.48 35.23Q268.29 58 282.17 90.48l-.75-.09q-.55-.06-.56.49-.02.63-.41 1.15-13.66-32.48-40.48-55.24.38-.94 1.51-1.56Z"/><path fill="#02e1d6" d="M28.8 63.74Q-2.18 108.31 2.95 163H.84L0 152.36v-10.08q2.03-44.66 27.68-80.64.48.06.81-.09.4-.18.61.2l.13.26q.15.27-.12.42-.63.38-.31 1.31Z"/><path fill="#5e50f4" d="M282.17 90.48q14.46 34.79 10.63 72.52h-2.16q3.79-36.87-10.19-70.97.39-.52.41-1.15.01-.55.56-.49l.75.09Z"/></svg>