<svg width="304" height="129" fill="none" xmlns="http://www.w3.org/2000/svg"><path d="m2 127.5 10.518-16.863c1.49-2.389 4.96-2.416 6.487-.049 1.648 2.553 5.468 2.273 6.725-.494l10.289-22.65c1.45-3.194 6.017-3.106 7.345.142l2.047 5.009c1.316 3.22 5.832 3.338 7.32.194 1.456-3.076 5.846-3.048 7.257.049l5.086 11.161c1.423 3.124 5.862 3.122 7.282-.004l5.296-11.66c.936-2.06 3.87-2.042 4.781.03 1.068 2.43 4.657 1.913 4.994-.72l5.571-43.411c.373-2.904 3.636-4.437 6.109-2.87l8.545 5.416c.231.146.447.316.644.507l15.779 15.3c.282.274.522.587.712.93l6.233 11.229c1.519 2.735 5.447 2.747 6.983.022l4.142-7.354c1.662-2.95 6.009-2.63 7.221.532l1.297 3.386c1.308 3.415 6.134 3.429 7.462.022l4.302-11.04c1.468-3.769 6.965-3.225 7.666.76l1.704 9.677c.755 4.287 6.845 4.455 7.835.217l6.405-27.423c.845-3.618 5.737-4.23 7.446-.931l7.481 14.431c1.394 2.69 5.155 2.914 6.859.41l2.279-3.352c1.913-2.811 6.238-2.107 7.158 1.166l3.936 13.99c1.116 3.964 6.773 3.858 7.739-.146l5.44-22.549c.942-3.907 6.412-4.14 7.683-.326l4.63 13.894c.971 2.914 5.033 3.076 6.233.248l.346-.815c.952-2.244 4.077-2.392 5.236-.248 1.147 2.12 4.227 2.006 5.213-.194l15.541-34.668c1.237-2.758 5.189-2.65 6.274.17 1.123 2.922 5.263 2.901 6.357-.03L302 1.5" stroke="#43A1F7" stroke-width="3"/><path d="m2 127.5 10.518-16.863c1.49-2.389 4.96-2.416 6.487-.049 1.648 2.553 5.468 2.273 6.725-.494l10.289-22.65c1.45-3.194 6.017-3.106 7.345.142l2.047 5.009c1.316 3.22 5.832 3.338 7.32.194 1.456-3.076 5.846-3.048 7.257.049l5.086 11.161c1.423 3.124 5.862 3.122 7.282-.004l5.296-11.66c.936-2.06 3.87-2.042 4.781.03 1.068 2.43 4.657 1.913 4.994-.72l5.571-43.411c.373-2.904 3.636-4.437 6.109-2.87l8.545 5.416c.231.146.447.316.644.507l15.779 15.3c.282.274.522.587.712.93l6.233 11.229c1.519 2.735 5.447 2.747 6.983.022l4.142-7.354c1.662-2.95 6.009-2.63 7.221.532l1.297 3.386c1.308 3.415 6.134 3.429 7.462.022l4.302-11.04c1.468-3.769 6.965-3.225 7.666.76l1.704 9.677c.755 4.287 6.845 4.455 7.835.217l6.405-27.423c.845-3.618 5.737-4.23 7.446-.931l7.481 14.431c1.394 2.69 5.155 2.914 6.859.41l2.279-3.352c1.913-2.811 6.238-2.107 7.158 1.166l3.936 13.99c1.116 3.964 6.773 3.858 7.739-.146l5.44-22.549c.942-3.907 6.412-4.14 7.683-.326l4.63 13.894c.971 2.914 5.033 3.076 6.233.248l.346-.815c.952-2.244 4.077-2.392 5.236-.248 1.147 2.12 4.227 2.006 5.213-.194l15.541-34.668c1.237-2.758 5.189-2.65 6.274.17 1.123 2.922 5.263 2.901 6.357-.03L302 1.5" stroke="url('#a')" stroke-width="3"/><defs><linearGradient id="a" x1="302" y1="1.5" x2="-7.561" y2="32.729" gradientUnits="userSpaceOnUse"><stop stop-color="#577CFF"/><stop offset="1" stop-color="#4CBFFF"/></linearGradient></defs></svg>