<svg aria-hidden="true" style="width:0;height:0;position:absolute;overflow:hidden" xmlns="http://www.w3.org/2000/svg"><defs><symbol id="midas" viewBox="0 0 56 64"><path fill-rule="evenodd" clip-rule="evenodd" d="M35.875 21 0 43h41l-5.125-22Zm-30.75 0 11.954 8.998L0 43l5.125-22Z" fill="#fff"/></symbol><symbol id="close" viewBox="0 0 32 32"><path d="M16 1.167C7.808 1.167 1.167 7.808 1.167 16S7.808 30.833 16 30.833 30.833 24.192 30.833 16 24.192 1.167 16 1.167zm-5.061 9.773a1.5 1.5 0 0 1 2.121 0l2.939 2.939 2.939-2.939a1.5 1.5 0 1 1 2.121 2.121L18.12 16l2.939 2.939a1.5 1.5 0 1 1-2.121 2.121l-2.939-2.939-2.939 2.939a1.5 1.5 0 1 1-2.121-2.121L13.878 16l-2.939-2.939a1.5 1.5 0 0 1 0-2.121z"/></symbol><symbol id="down" viewBox="0 0 20 20"><path d="M11.708 11.625c-.601.601-.902.902-1.245 1.014a1.5 1.5 0 0 1-.927 0c-.342-.112-.643-.412-1.245-1.014-1.303-1.304-1.955-1.956-1.999-2.507a1.5 1.5 0 0 1 .522-1.259C7.234 7.5 8.156 7.5 10 7.5c1.844 0 2.765 0 3.186.36a1.5 1.5 0 0 1 .521 1.258c-.043.551-.695 1.203-1.999 2.507Z" fill="#fff" fill-opacity=".24"/></symbol><symbol id="menu-btn" viewBox="0 0 32 32"><path d="M6.4 11.734V9.6h19.2v2.134H6.4zm0 5.332h19.2v-2.133H6.4v2.133zm0 5.334h19.2v-2.134H6.4V22.4z"/></symbol><symbol id="menu-close" viewBox="0 0 32 32"><path d="M23.734 10.304 22.23 8.8l-5.963 5.962L10.305 8.8l-1.504 1.504 5.962 5.962-5.962 5.963 1.504 1.504 5.962-5.963 5.963 5.963 1.504-1.504-5.963-5.963 5.963-5.962z"/></symbol><symbol id="lightning" viewBox="0 0 32 32"><path d="M18.019.512c-.478-.168-.937.103-1.422.566-.494.472-1.094 1.222-1.875 2.198l-.011.014-9.44 11.8c-.592.74-1.05 1.313-1.322 1.777s-.396.884-.205 1.281.595.562 1.128.64c.532.078 1.266.078 2.214.078H11.2c.508 0 .87 0 1.144.037.268.036.423.104.536.217s.181.267.217.536c.037.274.037.635.037 1.144v6.47c0 1.25 0 2.21.091 2.887.089.665.279 1.163.756 1.33s.937-.103 1.422-.566c.494-.472 1.094-1.221 1.875-2.198l.011-.014 9.44-11.8c.592-.74 1.05-1.313 1.322-1.777s.395-.884.205-1.281c-.191-.397-.595-.562-1.128-.64s-1.267-.078-2.214-.078H20.8c-.508 0-.87 0-1.144-.037-.268-.036-.423-.104-.536-.217s-.18-.267-.217-.536c-.037-.274-.037-.635-.037-1.144v-6.47c0-1.25 0-2.21-.091-2.887-.089-.665-.279-1.163-.756-1.33z"/></symbol><symbol id="btc" viewBox="0 0 32 32"><path d="M16 1.231c8.157 0 14.769 6.612 14.769 14.769S24.157 30.769 16 30.769 1.231 24.157 1.231 16 7.843 1.231 16 1.231z"/><path fill="#fff" style="fill:var(--color1,#fff)" d="M22.513 13.896c.294-1.965-1.202-3.022-3.249-3.727l.664-2.662-1.621-.404-.646 2.592c-.426-.106-.864-.206-1.299-.306l.651-2.609-1.62-.404-.664 2.662a55.35 55.35 0 0 1-1.035-.243l.002-.008-2.235-.558-.431 1.731s1.202.276 1.177.293c.656.164.775.598.755.943l-.756 3.033c.045.011.104.028.168.054l-.171-.042-1.06 4.249c-.08.199-.284.499-.743.385.016.024-1.178-.294-1.178-.294l-.805 1.855 2.109.526c.392.098.777.201 1.155.298l-.671 2.693 1.619.404.664-2.664c.442.12.871.231 1.292.335l-.662 2.652 1.621.404.671-2.688c2.764.523 4.842.312 5.716-2.188.705-2.012-.035-3.173-1.489-3.93 1.059-.244 1.857-.941 2.069-2.38zm-3.703 5.192c-.501 2.013-3.889.925-4.988.652l.89-3.568c1.099.274 4.621.817 4.098 2.916zm.501-5.221c-.457 1.831-3.277.901-4.192.673l.807-3.236c.915.228 3.861.654 3.385 2.563z"/></symbol><symbol id="ftm" viewBox="0 0 32 32"><path fill="#13b5ec" style="fill:var(--color2,#13b5ec)" d="M16 6.857a6.857 6.857 0 1 1 0 13.714 6.857 6.857 0 0 1 0-13.714z"/><path fill="#fff" style="fill:var(--color1,#fff)" d="m16.514 12.386 1.543-.9v1.8l-1.543-.9zm1.543 3.857L16 17.443l-2.057-1.2v-2.1l2.057 1.2 2.057-1.2v2.1zm-4.114-4.757 1.543.9-1.543.9v-1.8zm2.314 1.328 1.543.9-1.543.9v-1.8zm-.514 1.8-1.543-.9 1.543-.9v1.8zm2.057-3.557L16 12.086l-1.8-1.029L16 9.986l1.8 1.071zm-4.371-.171V16.5L16 17.957l2.571-1.457v-5.614L16 9.429l-2.571 1.457z"/></symbol><symbol id="smart" viewBox="0 0 32 32"><path fill="#fff" style="fill:var(--color1,#fff)" d="M26.803 5.282a7.623 7.623 0 0 0-11.008 0l-.948.978a1.066 1.066 0 0 0 1.532 1.485l.948-.978a5.49 5.49 0 0 1 7.944 0c2.216 2.286 2.216 6.005 0 8.291l-2.26 2.331a4.986 4.986 0 0 1-7.215 0l-.364-.376a1.066 1.066 0 0 0-1.532 1.485l.364.376a7.119 7.119 0 0 0 10.279 0l2.26-2.331c3.018-3.113 3.018-8.147 0-11.26zM8.988 14.611a4.986 4.986 0 0 1 7.215 0l.364.376a1.066 1.066 0 0 0 1.532-1.485l-.364-.376a7.119 7.119 0 0 0-10.279 0l-2.26 2.331c-3.018 3.113-3.018 8.147 0 11.26a7.623 7.623 0 0 0 11.008 0l.948-.978a1.066 1.066 0 0 0-1.532-1.485l-.948.978a5.49 5.49 0 0 1-7.944 0c-2.216-2.286-2.216-6.005 0-8.291l2.26-2.331z"/></symbol><symbol id="address-1" viewBox="0 0 32 32"><path fill="#fff" style="fill:var(--color1,#fff)" opacity=".12" d="M12.444 7.111h7.111a5.333 5.333 0 0 1 5.333 5.333v7.111a5.333 5.333 0 0 1-5.333 5.333h-7.111a5.333 5.333 0 0 1-5.333-5.333v-7.111a5.333 5.333 0 0 1 5.333-5.333z"/><path fill="#fff" style="fill:var(--color1,#fff)" d="M7.778 12A4.222 4.222 0 0 1 12 7.778h.444a.667.667 0 1 0 0-1.334H12A5.556 5.556 0 0 0 6.444 12v.444a.667.667 0 1 0 1.334 0V12zm11.778-5.556a.667.667 0 1 0 0 1.334H20A4.222 4.222 0 0 1 24.222 12v.444a.667.667 0 1 0 1.334 0V12A5.556 5.556 0 0 0 20 6.444h-.444zM7.778 19.556a.667.667 0 1 0-1.334 0V20A5.556 5.556 0 0 0 12 25.556h.444a.667.667 0 0 0 0-1.334H12A4.222 4.222 0 0 1 7.778 20v-.444zm17.778 0a.667.667 0 0 0-1.334 0V20A4.222 4.222 0 0 1 20 24.222h-.444a.667.667 0 0 0 0 1.334H20A5.556 5.556 0 0 0 25.556 20v-.444zM7.111 15.333a.667.667 0 0 0 0 1.334h17.778a.667.667 0 0 0 0-1.334H7.111z"/></symbol><symbol id="address-2" viewBox="0 0 32 32"><path fill="#fff" style="fill:var(--color1,#fff)" d="M7.499 9.052c-.388.761-.388 1.756-.388 3.748v1.067c0 1.991 0 2.987.388 3.748a3.558 3.558 0 0 0 1.554 1.554c.761.388 1.756.388 3.748.388h1.067c1.991 0 2.987 0 3.748-.388a3.558 3.558 0 0 0 1.554-1.554c.388-.761.388-1.756.388-3.748V12.8c0-1.991 0-2.987-.388-3.748a3.558 3.558 0 0 0-1.554-1.554c-.761-.388-1.756-.388-3.748-.388h-1.067c-1.991 0-2.987 0-3.748.388a3.558 3.558 0 0 0-1.554 1.554zm17.39 7.343V19.2c0 1.991 0 2.987-.388 3.748a3.558 3.558 0 0 1-1.554 1.554c-.761.388-1.756.388-3.748.388H16.27c-.252 0-.378 0-.484-.006a3.555 3.555 0 0 1-3.336-3.336c-.006-.106-.006-.232-.006-.484l.001-.06a.444.444 0 0 1 .409-.417l.06-.002.551-.01c2.447-.045 3.671-.068 4.604-.559a4.44 4.44 0 0 0 1.902-1.938c.473-.942.473-2.166.473-4.613v-.525c0-.046 0-.069.002-.088a.445.445 0 0 1 .404-.404c.019-.002.042-.002.088-.002.367 0 .55 0 .705.014a3.554 3.554 0 0 1 3.232 3.232c.014.155.014.338.014.705z"/></symbol><symbol id="clock" viewBox="0 0 37 32"><path fill="#fff" style="fill:var(--color1,#fff)" d="M.421 18.526C.421 8.527 8.527.421 18.526.421s18.105 8.106 18.105 18.105-8.106 18.105-18.105 18.105S.421 28.525.421 18.526zm19.368-6.737a1.263 1.263 0 0 0-2.526 0v6.737c0 .422.211.817.563 1.051l5.053 3.368a1.264 1.264 0 0 0 1.402-2.102l-4.49-2.994v-6.061z"/></symbol><symbol id="question" viewBox="0 0 32 32"><path fill="#fff" style="fill:var(--color1,#fff)" d="M16 1.467C7.973 1.467 1.467 7.974 1.467 16S7.974 30.533 16 30.533c8.027 0 14.533-6.507 14.533-14.533S24.026 1.467 16 1.467zm0 21.2A1.333 1.333 0 1 0 16 20a1.333 1.333 0 0 0 0 2.667zm0-10.8c-.81 0-1.467.657-1.467 1.467v.667a1.2 1.2 0 1 1-2.4 0v-.667a3.867 3.867 0 1 1 7.734 0v.162a4.025 4.025 0 0 1-1.18 2.848l-1.838 1.838a1.2 1.2 0 1 1-1.697-1.697l1.838-1.838a1.63 1.63 0 0 0 .477-1.152v-.162c0-.81-.657-1.467-1.467-1.467z"/></symbol><symbol id="gift" viewBox="0 0 32 32"><path fill="#fff" style="fill:var(--color1,#fff)" d="M22.5 6a1.833 1.833 0 0 0-1.833-1.833h-.107a1.94 1.94 0 0 0-1.858 1.383l-.685 2.284h2.651a1.833 1.833 0 0 0 1.833-1.833zm2.641 1.834a4.833 4.833 0 0 0-4.473-6.666h-.107a4.942 4.942 0 0 0-4.56 3.038 4.94 4.94 0 0 0-4.56-3.038h-.107a4.833 4.833 0 0 0-4.473 6.666H4.668a3.5 3.5 0 1 0 0 7h22.667a3.5 3.5 0 1 0 0-7h-2.193zm-13.807 0h2.651L13.3 5.55a1.94 1.94 0 0 0-1.858-1.383h-.107a1.833 1.833 0 1 0 0 3.666zm-2.759 7.999h14.852c.764-.001 1.495-.003 2.129.219a3.901 3.901 0 0 1 2.393 2.393c.222.634.221 1.365.219 2.129v.486c.001 2.105.002 3.543-.421 4.751a7.502 7.502 0 0 1-4.602 4.602c-1.207.422-2.646.422-4.751.421h-4.786c-2.105.001-3.543.001-4.751-.421a7.502 7.502 0 0 1-4.602-4.602c-.422-1.207-.422-2.646-.421-4.751v-.486c-.001-.764-.003-1.495.219-2.129a3.901 3.901 0 0 1 2.393-2.393c.634-.222 1.365-.221 2.129-.219z"/></symbol><symbol id="telegram" viewBox="0 0 32 32"><path d="m27.553 4.956-23.64 9.116c-1.613.648-1.604 1.548-.296 1.949l6.069 1.893 14.043-8.86c.664-.404 1.271-.187.772.256L13.124 19.579l-.419 6.256c.613 0 .884-.281 1.228-.613l2.948-2.867 6.132 4.529c1.131.623 1.943.303 2.224-1.047l4.025-18.971c.412-1.652-.631-2.4-1.709-1.912z"/></symbol><symbol id="discord" viewBox="0 0 32 32"><path d="M19.759 5.681c-.265.474-.501.964-.707 1.467a19.545 19.545 0 0 0-6.107 0 13.548 13.548 0 0 0-.707-1.467 21.375 21.375 0 0 0-5.507 1.733 23.103 23.103 0 0 0-4 15.453 22.132 22.132 0 0 0 6.76 3.453 17.196 17.196 0 0 0 1.48-2.32 12.867 12.867 0 0 1-2.28-1.107c.198-.132.385-.279.56-.44a15.546 15.546 0 0 0 13.494 0c.187.16.373.307.56.44a14.47 14.47 0 0 1-2.28 1.12c.413.83.894 1.624 1.44 2.373a21.943 21.943 0 0 0 6.747-3.453 22.956 22.956 0 0 0-4-15.453 21.447 21.447 0 0 0-5.453-1.8zm-8.187 14.066a2.587 2.587 0 0 1-2.4-2.667 2.572 2.572 0 0 1 2.4-2.667 2.574 2.574 0 0 1 2.4 2.667 2.575 2.575 0 0 1-2.4 2.667zm8.853 0a2.587 2.587 0 0 1-2.401-2.667 2.572 2.572 0 0 1 2.4-2.667 2.557 2.557 0 0 1 2.4 2.667 2.561 2.561 0 0 1-2.4 2.667z"/></symbol><symbol id="headphones" viewBox="0 0 32 32"><path d="M16 1.917C10.431 1.917 5.917 6.431 5.917 12v4.583h-.08c-.534 0-.98 0-1.344.03-.38.031-.737.098-1.074.27a2.754 2.754 0 0 0-1.202 1.202c-.172.337-.239.694-.27 1.074-.03.364-.03.81-.03 1.344v5.661c0 .534 0 .98.03 1.344.031.38.098.737.27 1.074.264.517.684.938 1.202 1.202.337.172.694.239 1.074.27.364.03.81.03 1.344.03h1.661c.534 0 .98 0 1.344-.03.38-.031.737-.098 1.074-.27a2.754 2.754 0 0 0 1.202-1.202c.172-.337.239-.694.27-1.074.03-.364.03-.81.03-1.344v-5.661c0-.534 0-.98-.03-1.344-.031-.38-.098-.736-.27-1.074a2.754 2.754 0 0 0-1.202-1.202c-.337-.172-.694-.239-1.074-.27-.364-.03-.81-.03-1.344-.03h-.08V12a8.583 8.583 0 0 1 17.166 0v4.583h-.081c-.534 0-.98 0-1.344.03-.38.031-.736.098-1.074.27a2.754 2.754 0 0 0-1.202 1.202c-.172.337-.239.694-.27 1.074-.03.364-.03.81-.03 1.344v5.661c0 .534 0 .98.03 1.344.031.38.098.737.27 1.074.264.517.684.938 1.202 1.202.337.172.694.239 1.074.27.364.03.81.03 1.344.03h1.661c.534 0 .98 0 1.344-.03.38-.031.737-.098 1.074-.27a2.754 2.754 0 0 0 1.202-1.202c.172-.337.239-.694.27-1.074.03-.364.03-.81.03-1.344v-5.661c0-.534 0-.98-.03-1.344-.031-.38-.098-.736-.27-1.074a2.754 2.754 0 0 0-1.202-1.202c-.337-.172-.694-.239-1.074-.27-.364-.03-.81-.03-1.344-.03h-.08V12c0-5.569-4.515-10.083-10.083-10.083z"/></symbol></defs></svg>