<svg width="48" height="48" fill="none" xmlns="http://www.w3.org/2000/svg"><path fill-rule="evenodd" clip-rule="evenodd" d="M25.106.575a6 6 0 0 0-2.212 0c-.834.156-1.6.54-2.47.977l-.18.09L4.83 9.35l-.079.04c-.853.426-1.614.806-2.19 1.163-.567.352-1.296.877-1.703 1.734a4 4 0 0 0 0 3.428c.407.857 1.136 1.382 1.703 1.734.576.357 1.337.737 2.19 1.164l.079.04 15.413 7.706.18.09c.87.436 1.637.82 2.47.977a6 6 0 0 0 2.213 0c.834-.156 1.6-.54 2.47-.977l.18-.09L43.17 18.65l.079-.04c.853-.426 1.614-.806 2.19-1.163.567-.352 1.296-.877 1.703-1.734a4 4 0 0 0 0-3.428c-.407-.857-1.136-1.382-1.703-1.734-.576-.357-1.337-.737-2.19-1.164l-.079-.039-15.413-7.707-.18-.09c-.87-.436-1.637-.82-2.47-.977ZM4.894 24.211a2 2 0 0 0-1.788 3.578l18.569 9.284.11.056c.404.204.915.46 1.477.566.488.092.988.092 1.476 0 .563-.105 1.072-.362 1.478-.566l.11-.056 18.568-9.284a2 2 0 1 0-1.788-3.578l-18.57 9.285c-.28.14-.422.21-.528.256l-.008.004-.008-.004a12.654 12.654 0 0 1-.529-.256L4.894 24.21Zm0 10a2 2 0 0 0-1.788 3.578l18.569 9.284.11.056c.404.204.915.46 1.477.566.488.092.988.092 1.476 0 .563-.105 1.073-.362 1.478-.566l.11-.056 18.568-9.284a2 2 0 1 0-1.788-3.578l-18.57 9.285c-.28.14-.422.21-.528.256l-.008.004-.008-.004a12.654 12.654 0 0 1-.529-.256L4.894 34.21Z" fill="#CF68FF"/></svg>