<svg width="120" height="120" fill="none" xmlns="http://www.w3.org/2000/svg"><path fill-rule="evenodd" clip-rule="evenodd" d="M67.572 1.92c-1.791-.628-3.512.386-5.331 2.125-1.854 1.77-4.102 4.58-7.03 8.241l-.044.054-35.355 44.194-.044.055c-2.22 2.774-3.939 4.924-4.959 6.665-1.021 1.744-1.483 3.315-.768 4.804.716 1.488 2.23 2.109 4.23 2.4 1.997.292 4.75.292 8.303.292H42c1.907 0 3.261.002 4.289.14 1.006.135 1.586.389 2.009.812.423.423.677 1.003.812 2.009.138 1.028.14 2.382.14 4.289v24.263c0 4.688 0 8.287.341 10.827.335 2.494 1.045 4.361 2.837 4.989 1.791.629 3.512-.385 5.331-2.124 1.853-1.77 4.102-4.58 7.03-8.242l.043-.053 35.356-44.194.044-.055c2.219-2.775 3.939-4.924 4.959-6.665 1.021-1.744 1.483-3.315.768-4.804-.716-1.488-2.231-2.109-4.231-2.4-1.997-.292-4.75-.292-8.302-.292H78c-1.907 0-3.262-.002-4.29-.14-1.005-.135-1.585-.389-2.008-.812-.423-.423-.677-1.003-.812-2.009-.139-1.028-.14-2.382-.14-4.289V17.737c0-4.688 0-8.287-.341-10.827-.335-2.494-1.045-4.36-2.837-4.99Z" fill="url('#a')"/><defs><linearGradient id="a" x1="60.52" y1="118.266" x2="117.821" y2="70.563" gradientUnits="userSpaceOnUse"><stop stop-color="#FFC657"/><stop offset="1" stop-color="#FFD977"/></linearGradient></defs></svg>