<svg width="800" height="800" viewBox="0 -6.5 38 38" xmlns="http://www.w3.org/2000/svg"><g id="icons" stroke="none" stroke-width="1" fill="#fff" fill-rule="evenodd"><g id="ui-gambling-website-lined-icnos-casinoshunter" transform="translate(-1511 -158)" fill="#fff" fill-rule="nonzero"><g id="1" transform="translate(1350 120)"><path d="m187.812 38.58 10.513 10.424.088.082c.352.349.557.809.587 1.352l-.002.183c-.025.43-.19.842-.514 1.21l-.123.127-10.549 10.462a2.005 2.005 0 0 1-2.822 0 1.985 1.985 0 0 1 0-2.822l7.284-7.224H163c-1.102 0-1.999-.889-1.999-1.99 0-1.102.897-1.992 2-1.992h29.04l-7.05-6.99a1.985 1.985 0 0 1 0-2.822 2.005 2.005 0 0 1 2.822 0Z" id="right-arrow"/></g></g></g></svg>