<svg width="56" height="56" fill="none" xmlns="http://www.w3.org/2000/svg">
  <g filter="url(#a)">
    <rect x="16" y="12" width="24" height="24" rx="12" fill="#13B5EC"/>
    <path fill-rule="evenodd" clip-rule="evenodd" d="m28.9 21.675 2.7-1.575v3.15l-2.7-1.575Zm2.7 6.75-3.6 2.1-3.6-2.1V24.75l3.6 2.1 3.6-2.1v3.675ZM24.4 20.1l2.7 1.575-2.7 1.575V20.1Zm4.05 2.325L31.15 24l-2.7 1.575v-3.15Zm-.9 3.15L24.85 24l2.7-1.575v3.15Zm3.6-6.225L28 21.15l-3.15-1.8L28 17.475l3.15 1.875Zm-7.65-.3v9.825l4.5 2.55 4.5-2.55V19.05L28 16.5l-4.5 2.55Z" fill="#fff"/>
  </g>
  <defs>
    <filter id="a" x="0" y="0" width="56" height="56" filterUnits="userSpaceOnUse" color-interpolation-filters="sRGB">
      <feFlood flood-opacity="0" result="BackgroundImageFix"/>
      <feColorMatrix in="SourceAlpha" values="0 0 0 0 0 0 0 0 0 0 0 0 0 0 0 0 0 0 127 0" result="hardAlpha"/>
      <feOffset dy="4"/>
      <feGaussianBlur stdDeviation="8"/>
      <feComposite in2="hardAlpha" operator="out"/>
      <feColorMatrix values="0 0 0 0 0.0745098 0 0 0 0 0.709804 0 0 0 0 0.92549 0 0 0 0.24 0"/>
      <feBlend in2="BackgroundImageFix" result="effect1_dropShadow_4381_1028"/>
      <feBlend in="SourceGraphic" in2="effect1_dropShadow_4381_1028" result="shape"/>
    </filter>
  </defs>
</svg>
