<svg width="60" height="60" fill="none" xmlns="http://www.w3.org/2000/svg">
  <path fill-rule="evenodd" clip-rule="evenodd" d="M50.256 9.904c-5.692-5.872-14.947-5.872-20.639 0l-1.776 1.833a2 2 0 1 0 2.872 2.784l1.776-1.833c4.12-4.25 10.775-4.25 14.895 0 4.155 4.286 4.155 11.26 0 15.545l-4.236 4.37c-3.744 3.862-9.786 3.862-13.529 0l-.683-.704a2 2 0 0 0-2.872 2.784l.683.705a13.347 13.347 0 0 0 19.273 0l4.236-4.37c5.658-5.838 5.658-15.277 0-21.114ZM16.852 27.396c3.744-3.861 9.786-3.861 13.529 0l.683.705a2 2 0 0 0 2.872-2.784l-.683-.705a13.347 13.347 0 0 0-19.273 0l-4.236 4.37c-5.659 5.838-5.659 15.277 0 21.114 5.692 5.872 14.947 5.872 20.639 0l1.776-1.833a2 2 0 1 0-2.872-2.784l-1.776 1.833c-4.12 4.25-10.775 4.25-14.895 0-4.155-4.286-4.155-11.26 0-15.545l4.236-4.37Z" fill="#fff"/>
</svg>
