<svg width="36" height="36" fill="none" xmlns="http://www.w3.org/2000/svg">
  <path fill-rule="evenodd" clip-rule="evenodd" d="M8.436 10.184C8 11.04 8 12.16 8 14.4v1.2c0 2.24 0 3.36.436 4.216a4 4 0 0 0 1.748 1.748C11.04 22 12.16 22 14.4 22h1.2c2.24 0 3.36 0 4.216-.436a4 4 0 0 0 1.748-1.748C22 18.96 22 17.84 22 15.6v-1.2c0-2.24 0-3.36-.436-4.216a4 4 0 0 0-1.748-1.748C18.96 8 17.84 8 15.6 8h-1.2c-2.24 0-3.36 0-4.216.436a4 4 0 0 0-1.748 1.748ZM28 18.444V21.6c0 2.24 0 3.36-.436 4.216a4 4 0 0 1-1.748 1.748C24.96 28 23.84 28 21.6 28h-3.295c-.283 0-.425 0-.544-.007a4 4 0 0 1-3.754-3.753C14 24.12 14 23.977 14 23.694v-.067a.5.5 0 0 1 .528-.471l.62-.012c2.753-.05 4.13-.076 5.18-.628a5 5 0 0 0 2.14-2.18C23 19.277 23 17.9 23 15.147v-.591c0-.052 0-.078.002-.1a.5.5 0 0 1 .454-.454c.022-.002.048-.002.1-.002.412 0 .619 0 .793.015a4 4 0 0 1 3.636 3.636c.015.174.015.38.015.794Z" fill="#fff"/>
</svg>
