<svg width="36" height="36" fill="none" xmlns="http://www.w3.org/2000/svg">
  <rect opacity=".12" x="8" y="8" width="20" height="20" rx="6" fill="#fff"/>
  <path fill-rule="evenodd" clip-rule="evenodd" d="M8.75 13.5a4.75 4.75 0 0 1 4.75-4.75h.5a.75.75 0 0 0 0-1.5h-.5a6.25 6.25 0 0 0-6.25 6.25v.5a.75.75 0 0 0 1.5 0v-.5ZM22 7.25a.75.75 0 1 0 0 1.5h.5a4.75 4.75 0 0 1 4.75 4.75v.5a.75.75 0 1 0 1.5 0v-.5a6.25 6.25 0 0 0-6.25-6.25H22ZM8.75 22a.75.75 0 0 0-1.5 0v.5a6.25 6.25 0 0 0 6.25 6.25h.5a.75.75 0 0 0 0-1.5h-.5a4.75 4.75 0 0 1-4.75-4.75V22Zm20 0a.75.75 0 0 0-1.5 0v.5a4.75 4.75 0 0 1-4.75 4.75H22a.75.75 0 1 0 0 1.5h.5a6.25 6.25 0 0 0 6.25-6.25V22ZM8 17.25a.75.75 0 0 0 0 1.5h20a.75.75 0 0 0 0-1.5H8Z" fill="#fff"/>
</svg>
