<?xml version="1.0" encoding="UTF-8" standalone="no"?>
<!DOCTYPE svg PUBLIC "-//W3C//DTD SVG 1.1//EN" "http://www.w3.org/Graphics/SVG/1.1/DTD/svg11.dtd">
<svg xmlns="http://www.w3.org/2000/svg" version="1.1" viewBox="0.00 0.00 724.00 363.00">
<g stroke-width="2.00" fill="none" stroke-linecap="butt">
<path stroke="#2de0d8" vector-effect="non-scaling-stroke" d="
  M 452.55 11.40
  Q 451.87 11.86 451.70 12.28
  Q 451.51 12.75 451.01 12.72
  L 450.27 12.67
  Q 449.61 12.63 449.53 13.28
  Q 449.47 13.76 449.05 13.99
  Q 448.54 14.28 448.98 14.66
  Q 449.05 14.72 449.07 14.80
  Q 449.26 15.56 449.75 14.95
  Q 449.83 14.85 449.91 14.75
  A 0.57 0.55 20.4 0 1 450.39 14.54
  Q 452.51 14.65 453.48 16.70"
/>
<path stroke="#0feeb2" vector-effect="non-scaling-stroke" d="
  M 115.29 103.92
  L 115.12 103.45
  Q 114.95 102.99 114.66 103.39
  Q 113.43 105.10 111.81 106.44
  Q 111.75 106.50 111.81 106.55
  Q 111.82 106.56 111.56 106.64
  A 0.05 0.05 0.0 0 1 111.51 106.56
  Q 112.02 106.08 112.30 105.46
  Q 112.49 105.06 112.90 104.89
  Q 113.69 104.57 113.41 103.52
  Q 113.34 103.26 113.54 103.43
  Q 113.68 103.54 113.77 103.70
  Q 113.87 103.88 113.98 103.71
  L 114.93 102.32
  Q 115.28 101.80 114.65 101.73
  Q 113.88 101.64 113.93 100.79
  A 0.28 0.28 0.0 0 0 113.47 100.56
  Q 113.22 100.77 112.89 100.88
  Q 112.43 101.03 112.85 100.79
  Q 113.03 100.69 113.07 100.50
  Q 113.27 99.55 112.80 99.43"
/>
</g>
<path fill="#1be8c1" d="
  M 354.38 0.00
  L 369.75 0.00
  Q 411.81 1.07 452.55 11.40
  Q 451.87 11.86 451.70 12.28
  Q 451.51 12.75 451.01 12.72
  L 450.27 12.67
  Q 449.61 12.63 449.53 13.28
  Q 449.47 13.76 449.05 13.99
  Q 448.54 14.28 448.98 14.66
  Q 449.05 14.72 449.07 14.80
  Q 449.26 15.56 449.75 14.95
  Q 449.83 14.85 449.91 14.75
  A 0.57 0.55 20.4 0 1 450.39 14.54
  Q 452.51 14.65 453.48 16.70
  C 332.66 -14.57 205.61 17.74 115.29 103.92
  L 115.12 103.45
  Q 114.95 102.99 114.66 103.39
  Q 113.43 105.10 111.81 106.44
  Q 111.75 106.50 111.81 106.55
  Q 111.82 106.56 111.56 106.64
  A 0.05 0.05 0.0 0 1 111.51 106.56
  Q 112.02 106.08 112.30 105.46
  Q 112.49 105.06 112.90 104.89
  Q 113.69 104.57 113.41 103.52
  Q 113.34 103.26 113.54 103.43
  Q 113.68 103.54 113.77 103.70
  Q 113.87 103.88 113.98 103.71
  L 114.93 102.32
  Q 115.28 101.80 114.65 101.73
  Q 113.88 101.64 113.93 100.79
  A 0.28 0.28 0.0 0 0 113.47 100.56
  Q 113.22 100.77 112.89 100.88
  Q 112.43 101.03 112.85 100.79
  Q 113.03 100.69 113.07 100.50
  Q 113.27 99.55 112.80 99.43
  Q 140.59 73.15 171.55 54.07
  Q 255.07 2.59 354.38 0.00
  Z"
/>
<path fill="#3ed7ee" d="
  M 452.55 11.40
  Q 537.46 33.67 601.47 90.53
  Q 667.59 149.26 699.42 230.56
  Q 722.44 289.38 724.00 354.39
  L 724.00 363.00
  L 719.09 363.00
  Q 719.10 294.09 694.25 231.00
  C 679.14 192.63 657.05 156.46 629.42 125.46
  Q 558.01 45.33 453.48 16.70
  Q 452.51 14.65 450.39 14.54
  A 0.57 0.55 20.4 0 0 449.91 14.75
  Q 449.83 14.85 449.75 14.95
  Q 449.26 15.56 449.07 14.80
  Q 449.05 14.72 448.98 14.66
  Q 448.54 14.28 449.05 13.99
  Q 449.47 13.76 449.53 13.28
  Q 449.61 12.63 450.27 12.67
  L 451.01 12.72
  Q 451.51 12.75 451.70 12.28
  Q 451.87 11.86 452.55 11.40
  Z"
/>
<path fill="#02f4a3" d="
  M 112.80 99.43
  Q 113.27 99.55 113.07 100.50
  Q 113.03 100.69 112.85 100.79
  Q 112.43 101.03 112.89 100.88
  Q 113.22 100.77 113.47 100.56
  A 0.28 0.28 0.0 0 1 113.93 100.79
  Q 113.88 101.64 114.65 101.73
  Q 115.28 101.80 114.93 102.32
  L 113.98 103.71
  Q 113.87 103.88 113.77 103.70
  Q 113.68 103.54 113.54 103.43
  Q 113.34 103.26 113.41 103.52
  Q 113.69 104.57 112.90 104.89
  Q 112.49 105.06 112.30 105.46
  Q 112.02 106.08 111.51 106.56
  A 0.05 0.05 0.0 0 0 111.56 106.64
  Q 111.82 106.56 111.81 106.55
  Q 111.75 106.50 111.81 106.44
  Q 113.43 105.10 114.66 103.39
  Q 114.95 102.99 115.12 103.45
  L 115.29 103.92
  Q 75.85 141.69 49.91 188.43
  Q 5.03 269.29 4.92 363.00
  L 0.00 363.00
  L 0.00 354.51
  Q 1.72 281.60 30.60 216.10
  Q 59.73 150.02 112.80 99.43
  Z"
/>
</svg>
