<?xml version="1.0" encoding="UTF-8" standalone="no"?>
<!DOCTYPE svg PUBLIC "-//W3C//DTD SVG 1.1//EN" "http://www.w3.org/Graphics/SVG/1.1/DTD/svg11.dtd">
<svg xmlns="http://www.w3.org/2000/svg" version="1.1" viewBox="0.00 0.00 163.00 294.00">
<path fill="#6e43fc" d="
  M 5.39 0.00
  L 27.78 0.00
  Q 67.24 3.03 99.82 25.46
  Q 125.47 43.13 141.79 69.69
  Q 160.37 99.92 163.00 135.36
  L 163.00 157.50
  Q 162.70 159.57 162.59 161.67
  Q 162.47 164.01 162.19 166.01
  Q 155.96 210.24 126.86 243.33
  C 100.12 273.74 61.06 292.52 20.20 292.89
  Q 10.34 292.98 0.94 292.34
  A 0.35 0.34 5.0 0 1 0.62 291.97
  L 0.74 290.24
  Q 0.77 289.70 1.27 289.92
  Q 2.08 290.28 2.96 290.34
  Q 12.37 290.97 22.11 290.72
  C 63.69 289.64 102.94 269.52 128.81 237.70
  Q 155.46 204.91 160.29 163.09
  C 165.51 117.87 149.60 73.85 116.84 42.06
  Q 109.46 34.91 101.43 29.17
  Q 56.60 -2.80 0.91 2.49
  A 0.49 0.49 0.0 0 1 0.37 2.00
  L 0.37 0.93
  A 0.54 0.54 0.0 0 1 0.87 0.39
  L 5.39 0.00
  Z"
/>
</svg>
