<?xml version="1.0" encoding="UTF-8" standalone="no"?>
<!DOCTYPE svg PUBLIC "-//W3C//DTD SVG 1.1//EN" "http://www.w3.org/Graphics/SVG/1.1/DTD/svg11.dtd">
<svg xmlns="http://www.w3.org/2000/svg" version="1.1" viewBox="0.00 0.00 294.00 163.00">
<g stroke-width="2.00" fill="none" stroke-linecap="butt">
<path stroke="#20b3e0" vector-effect="non-scaling-stroke" d="
  M 161.96 1.47
  Q 161.96 2.55 161.25 2.40
  Q 160.46 2.78 160.47 3.42"
/>
<path stroke="#0ad5d9" vector-effect="non-scaling-stroke" d="
  M 28.80 63.74
  Q 28.48 62.81 29.11 62.43
  Q 29.38 62.28 29.23 62.01
  L 29.10 61.75
  Q 28.89 61.37 28.49 61.55
  Q 28.16 61.70 27.68 61.64"
/>
<path stroke="#3b89eb" vector-effect="non-scaling-stroke" d="
  M 241.48 35.23
  Q 240.35 35.85 239.97 36.79"
/>
<path stroke="#5363f2" vector-effect="non-scaling-stroke" d="
  M 282.17 90.48
  L 281.42 90.39
  Q 280.87 90.33 280.86 90.88
  Q 280.84 91.51 280.45 92.03"
/>
</g>
<path fill="#11c9db" d="
  M 161.96 1.47
  Q 161.96 2.55 161.25 2.40
  Q 160.46 2.78 160.47 3.42
  C 108.26 -1.10 59.37 21.36 28.80 63.74
  Q 28.48 62.81 29.11 62.43
  Q 29.38 62.28 29.23 62.01
  L 29.10 61.75
  Q 28.89 61.37 28.49 61.55
  Q 28.16 61.70 27.68 61.64
  C 57.27 20.88 104.61 -1.74 155.01 0.88
  Q 158.51 1.06 161.96 1.47
  Z"
/>
<path fill="#2e9ce5" d="
  M 161.96 1.47
  Q 166.01 1.82 170.00 2.47
  Q 210.24 9.08 241.48 35.23
  Q 240.35 35.85 239.97 36.79
  Q 205.41 8.00 160.47 3.42
  Q 160.46 2.78 161.25 2.40
  Q 161.96 2.55 161.96 1.47
  Z"
/>
<path fill="#4775f0" d="
  M 241.48 35.23
  Q 268.29 58.00 282.17 90.48
  L 281.42 90.39
  Q 280.87 90.33 280.86 90.88
  Q 280.84 91.51 280.45 92.03
  Q 266.79 59.55 239.97 36.79
  Q 240.35 35.85 241.48 35.23
  Z"
/>
<path fill="#02e1d6" d="
  M 28.80 63.74
  Q -2.18 108.31 2.95 163.00
  L 0.84 163.00
  L 0.00 152.36
  L 0.00 142.28
  Q 2.03 97.62 27.68 61.64
  Q 28.16 61.70 28.49 61.55
  Q 28.89 61.37 29.10 61.75
  L 29.23 62.01
  Q 29.38 62.28 29.11 62.43
  Q 28.48 62.81 28.80 63.74
  Z"
/>
<path fill="#5e50f4" d="
  M 282.17 90.48
  Q 296.63 125.27 292.80 163.00
  L 290.64 163.00
  Q 294.43 126.13 280.45 92.03
  Q 280.84 91.51 280.86 90.88
  Q 280.87 90.33 281.42 90.39
  L 282.17 90.48
  Z"
/>
</svg>
