<?xml version="1.0" encoding="UTF-8" standalone="no"?>
<!DOCTYPE svg PUBLIC "-//W3C//DTD SVG 1.1//EN" "http://www.w3.org/Graphics/SVG/1.1/DTD/svg11.dtd">
<svg xmlns="http://www.w3.org/2000/svg" version="1.1" viewBox="0.00 0.00 294.00 512.00">
<g stroke-width="2.00" fill="none" stroke-linecap="butt">
<path stroke="#437aee" vector-effect="non-scaling-stroke" d="
  M 190.92 11.40
  L 190.70 8.42"
/>
<path stroke="#437aee" vector-effect="non-scaling-stroke" d="
  M 29.73 142.56
  Q 29.48 142.82 29.28 142.76
  Q 29.01 142.67 29.02 142.38
  Q 29.04 142.14 29.19 141.95
  Q 29.56 141.52 28.99 141.44
  Q 28.76 141.40 28.61 141.58
  Q 27.63 142.74 26.38 142.77"
/>
<path stroke="#29a3e6" vector-effect="non-scaling-stroke" d="
  M 22.19 352.95
  Q 21.52 353.55 21.59 354.59
  Q 21.63 355.10 21.24 355.45
  L 20.38 356.23"
/>
<path stroke="#0ecfdc" vector-effect="non-scaling-stroke" d="
  M 146.50 484.22
  Q 146.04 484.14 145.63 484.31
  Q 145.17 484.50 145.12 485.00
  Q 145.05 485.75 144.48 486.46"
/>
</g>
<path fill="#3b85ec" d="
  M 246.88 0.00
  L 263.98 0.00
  L 294.00 2.78
  L 294.00 5.81
  Q 241.91 -1.91 190.92 11.40
  L 190.70 8.42
  Q 212.33 2.77 234.64 1.03
  Q 240.76 0.55 246.88 0.00
  Z"
/>
<path fill="#4a6fef" d="
  M 190.70 8.42
  L 190.92 11.40
  C 120.60 30.26 62.85 77.65 29.73 142.56
  Q 29.48 142.82 29.28 142.76
  Q 29.01 142.67 29.02 142.38
  Q 29.04 142.14 29.19 141.95
  Q 29.56 141.52 28.99 141.44
  Q 28.76 141.40 28.61 141.58
  Q 27.63 142.74 26.38 142.77
  Q 30.17 135.22 32.16 131.68
  C 66.49 70.72 123.06 26.29 190.70 8.42
  Z"
/>
<path fill="#3b85ec" d="
  M 29.73 142.56
  C -3.07 208.43 -5.79 284.90 22.19 352.95
  Q 21.52 353.55 21.59 354.59
  Q 21.63 355.10 21.24 355.45
  L 20.38 356.23
  Q 5.04 320.12 1.23 281.00
  Q 0.86 277.25 0.00 264.87
  L 0.00 247.75
  Q 0.81 234.83 1.31 230.01
  Q 6.02 184.05 26.38 142.77
  Q 27.63 142.74 28.61 141.58
  Q 28.76 141.40 28.99 141.44
  Q 29.56 141.52 29.19 141.95
  Q 29.04 142.14 29.02 142.38
  Q 29.01 142.67 29.28 142.76
  Q 29.48 142.82 29.73 142.56
  Z"
/>
<path fill="#17c0e0" d="
  M 22.19 352.95
  C 46.28 410.61 90.31 456.90 146.50 484.22
  Q 146.04 484.14 145.63 484.31
  Q 145.17 484.50 145.12 485.00
  Q 145.05 485.75 144.48 486.46
  C 88.55 459.39 44.83 413.08 20.38 356.23
  L 21.24 355.45
  Q 21.63 355.10 21.59 354.59
  Q 21.52 353.55 22.19 352.95
  Z"
/>
<path fill="#05ded7" d="
  M 146.50 484.22
  Q 216.59 517.32 294.00 506.23
  L 294.00 509.23
  Q 278.40 511.41 262.62 512.00
  L 247.75 512.00
  Q 234.36 511.14 230.50 510.75
  Q 185.32 506.20 144.48 486.46
  Q 145.05 485.75 145.12 485.00
  Q 145.17 484.50 145.63 484.31
  Q 146.04 484.14 146.50 484.22
  Z"
/>
</svg>
