<svg width="14" height="18" fill="none" xmlns="http://www.w3.org/2000/svg">
  <path fill-rule="evenodd" clip-rule="evenodd" d="m7 1.5.323-.677A.75.75 0 0 0 6.25 1.5c0 .607.03 1.276.06 1.937l.023.532c.035.843.056 1.652.012 2.36C6.3 7.052 6.19 7.577 6.02 7.9a.71.71 0 0 1-.223.274.51.51 0 0 1-.297.075c-.244 0-.385-.058-.48-.129-.103-.076-.218-.214-.324-.478-.222-.557-.321-1.459-.321-2.768a.75.75 0 0 0-1.234-.573l.484.573a91.782 91.782 0 0 0-.484-.573l-.002.002-.003.002-.01.008-.028.026a7.597 7.597 0 0 0-.429.42c-.269.285-.624.7-.98 1.232C.981 7.05.25 8.6.25 10.5c0 3.826 2.964 6.75 6.75 6.75s6.75-2.924 6.75-6.75c0-3.334-1.635-5.765-3.223-7.334a13.822 13.822 0 0 0-2.182-1.752A11.904 11.904 0 0 0 7.41.866a4.785 4.785 0 0 0-.06-.03L7.332.827 7.326.825 7.324.824 7 1.5Z" fill="#fff"/>
</svg>
