<svg width="16" height="16" fill="none" xmlns="http://www.w3.org/2000/svg">
  <g clip-path="url(#a)">
    <path fill-rule="evenodd" clip-rule="evenodd" d="M11.25 3a.917.917 0 0 0-.916-.917h-.054a.97.97 0 0 0-.93.692l-.342 1.142h1.326c.506 0 .916-.41.916-.917Zm1.32.917A2.417 2.417 0 0 0 10.333.584h-.053A2.47 2.47 0 0 0 8 2.102 2.47 2.47 0 0 0 5.72.583h-.053A2.417 2.417 0 0 0 3.43 3.917H2.333a1.75 1.75 0 1 0 0 3.5h11.334a1.75 1.75 0 1 0 0-3.5H12.57Zm-6.903 0h1.325L6.65 2.775a.97.97 0 0 0-.93-.692h-.053a.917.917 0 1 0 0 1.834Zm-1.38 4H11.713c.382-.001.747-.002 1.065.11.56.195 1 .636 1.196 1.196.111.317.11.682.11 1.064v.244c0 1.051 0 1.77-.21 2.374a3.75 3.75 0 0 1-2.302 2.301c-.604.212-1.323.211-2.375.21H6.803c-1.052.001-1.771.002-2.375-.21a3.75 3.75 0 0 1-2.3-2.3c-.212-.604-.212-1.324-.211-2.376v-.243c-.001-.382-.002-.747.11-1.064.195-.56.636-1 1.196-1.197.317-.11.682-.11 1.064-.11Z" fill="#43A1F7"/>
  </g>
  <defs>
    <clipPath id="a">
      <path fill="#fff" d="M0 0h16v16H0z"/>
    </clipPath>
  </defs>
</svg>
