<svg width="48" height="48" fill="none" xmlns="http://www.w3.org/2000/svg">
  <path fill-rule="evenodd" clip-rule="evenodd" d="M8 2h-.186c-.738-.001-1.462-.003-2.108.17A5 5 0 0 0 2.17 5.706c-.173.646-.172 1.37-.17 2.108V31.286c0 2.167 0 3.916.116 5.331.119 1.458.37 2.738.974 3.923a10 10 0 0 0 4.37 4.37c1.185.604 2.465.855 3.923.974 1.415.116 3.164.116 5.331.116H31.286c2.168 0 3.916 0 5.332-.116 1.458-.119 2.738-.37 3.923-.974a10 10 0 0 0 4.37-4.37c.604-1.185.855-2.465.974-3.923.017-.199.03-.404.042-.617h-3.99c-.877 0-1.634 0-2.26-.043-.66-.045-1.32-.144-1.972-.414a6 6 0 0 1-3.247-3.247c-.27-.652-.37-1.312-.414-1.971C34 29.698 34 28.94 34 28.064v-.128c0-.877 0-1.634.043-2.26.045-.66.144-1.32.414-1.972a6 6 0 0 1 3.247-3.247c.652-.27 1.312-.37 1.971-.414C40.302 20 41.06 20 41.935 20h3.991a24.517 24.517 0 0 0-.042-.617c-.119-1.458-.37-2.738-.974-3.923a10 10 0 0 0-4.37-4.37c-1.185-.604-2.465-.855-3.923-.974-.49-.04-1.02-.067-1.593-.084L31.52 5.36 31.4 5.2c-.584-.78-1.098-1.466-1.773-1.979a6 6 0 0 0-1.98-.99C26.833 1.999 25.976 2 25.002 2H8Zm22 8-1.68-2.24c-.774-1.031-.94-1.224-1.111-1.353a2 2 0 0 0-.66-.33C26.343 6.018 26.09 6 24.8 6H8c-.482 0-.778 0-1.002.01a1.583 1.583 0 0 0-.256.024 1 1 0 0 0-.707.707c.002-.007-.014.043-.023.256C6 7.221 6 7.517 6 8c0 .483 0 .779.01 1.003.01.213.026.263.024.256a1 1 0 0 0 .707.707c.007.002.069.015.256.023.191.01.435.01.802.011H30Zm16 21.302V24h-4c-.96 0-1.579.001-2.053.033-.456.031-.63.085-.712.12a2 2 0 0 0-1.083 1.082c-.034.083-.087.256-.119.713C38.001 26.422 38 27.04 38 28c0 .96.001 1.578.033 2.052.032.457.085.63.12.713a2 2 0 0 0 1.082 1.083c.083.034.256.088.712.119.474.032 1.094.033 2.053.033h4v-.698Z" fill="#FF68C3"/>
</svg>
