<svg width="24" height="24" viewBox="0 0 24 24" fill="none" xmlns="http://www.w3.org/2000/svg">
<path d="M13.697 9.69705L14.9029 10.9029C16.188 12.1881 16.8306 12.8306 16.874 13.3823C16.9117 13.861 16.7179 14.3288 16.3528 14.6406C15.932 15 15.0233 15 13.2059 15L10.7941 15C8.97664 15 8.06792 15 7.64712 14.6406C7.28201 14.3288 7.08825 13.861 7.12592 13.3823C7.16934 12.8306 7.8119 12.1881 9.09703 10.9029L10.3029 9.69706L10.3029 9.69705C10.8969 9.10303 11.194 8.80602 11.5364 8.69474C11.8377 8.59685 12.1622 8.59685 12.4635 8.69474C12.806 8.80602 13.103 9.10303 13.697 9.69705Z" fill="#43A1F7"/>
</svg>
