<svg xmlns="http://www.w3.org/2000/svg" width="24" height="24" fill="none"><path fill="#000" fill-rule="evenodd" d="M2 13h12v-2H2v2Z" clip-rule="evenodd"/><path fill="#000" fill-rule="evenodd" d="m4.793 7.793-3.5 3.5a1 1 0 0 0 0 1.414l3.5 3.5 1.414-1.414L3.414 12l2.793-2.793-1.414-1.414zM14.595 5.5c-2.48 0-4.638 1.431-5.703 3.539l-1.785-.902C8.495 5.39 11.323 3.5 14.595 3.5 19.25 3.5 23 7.318 23 12s-3.75 8.5-8.405 8.5c-3.272 0-6.1-1.89-7.488-4.636l1.785-.903c1.065 2.108 3.224 3.539 5.703 3.539C18.12 18.5 21 15.602 21 12s-2.88-6.5-6.405-6.5z" clip-rule="evenodd"/></svg>