<svg xmlns="http://www.w3.org/2000/svg" xml:space="preserve" viewBox="0 0 64 64"><path d="M12.036 45c0 .527.411.947.928.985v.515a.5.5 0 0 0 1 0V46h2v.5a.5.5 0 0 0 1 0V46h2c2.206 0 4-1.794 4-4 0-1.744-1.128-3.214-2.688-3.761.434-.639.688-1.41.688-2.239 0-2.206-1.794-4-4-4v-.5a.5.5 0 0 0-1 0v.5h-2v-.5a.5.5 0 0 0-1 0v.515a.993.993 0 0 0-.072 1.975v10.02c-.484.07-.856.487-.856.99zm8.928-3c0 1.103-.897 2-2 2h-4v-4h4c1.102 0 2 .897 2 2zm-2-6c0 1.103-.897 2-2 2h-2v-4h2c1.102 0 2 .897 2 2z"/><path d="M52 20h-3v-5c0-2.757-2.243-5-5-5H12c-3.309 0-6 2.691-6 6v33c0 2.757 2.243 5 5 5h42c2.757 0 5-2.243 5-5V26c0-3.309-2.691-6-6-6zm4 6v9h-1.988v-7.494c0-1.93-1.57-3.5-3.5-3.5h-39.5A3.49 3.49 0 0 1 8 22.258V20.46A5.97 5.97 0 0 0 12 22h40c2.206 0 4 1.794 4 4zm0 18h-7.5c-1.93 0-3.5-1.57-3.5-3.5s1.57-3.5 3.5-3.5H56v7zM8 23.826a4.465 4.465 0 0 0 3.012 1.18h39.5c1.379 0 2.5 1.122 2.5 2.5V35H48.5c-3.032 0-5.5 2.467-5.5 5.5s2.468 5.5 5.5 5.5h4.458l-.008 1.537c0 .827-.673 1.5-1.499 1.5L11 49c-1.28 0-2.39-.698-3-1.726V23.826zM44 20H12c-.347 0-.678-.058-1-.142V16.5c0-.827.673-1.5 1.5-1.5h30c.827 0 1.5.673 1.5 1.5V20zm-32-8h32c1.654 0 3 1.346 3 3v5h-2v-3.5c0-1.378-1.121-2.5-2.5-2.5h-30a2.503 2.503 0 0 0-2.5 2.5v2.944C8.81 18.75 8 17.474 8 16c0-2.206 1.794-4 4-4zm41 40H11c-1.654 0-3-1.346-3-3v-.17A4.468 4.468 0 0 0 11 50l40.449.037c1.379 0 2.5-1.122 2.5-2.497l.009-1.54H56v3c0 1.654-1.346 3-3 3z"/><path d="M47 40.5c0 .827.673 1.5 1.5 1.5s1.5-.673 1.5-1.5-.673-1.5-1.5-1.5-1.5.673-1.5 1.5zm2 0a.5.5 0 1 1-1.002-.002A.5.5 0 0 1 49 40.5z"/></svg>