<svg aria-hidden="true" style="position:absolute;width:0;height:0;overflow:hidden" xmlns="http://www.w3.org/2000/svg">
  <defs>
    <symbol id="midas" viewBox="0 0 56 64">
      <path fill-rule="evenodd" clip-rule="evenodd" d="M35.875 21L0 43H41L35.875 21ZM5.125 21L17.0791 29.998L0 43L5.125 21Z" fill="white"/>
    </symbol>
    <symbol id="close" viewBox="0 0 16 16">
      <path fill-rule="evenodd" clip-rule="evenodd" d="M7.99992 0.583496C3.90381 0.583496 0.583252 3.90405 0.583252 8.00016C0.583252 12.0963 3.90381 15.4168 7.99992 15.4168C12.096 15.4168 15.4166 12.0963 15.4166 8.00016C15.4166 3.90405 12.096 0.583496 7.99992 0.583496ZM5.46959 5.46983C5.76248 5.17694 6.23736 5.17694 6.53025 5.46983L7.99992 6.9395L9.46959 5.46983C9.76248 5.17694 10.2374 5.17694 10.5302 5.46983C10.8231 5.76273 10.8231 6.2376 10.5302 6.53049L9.06058 8.00016L10.5302 9.46983C10.8231 9.76273 10.8231 10.2376 10.5302 10.5305C10.2374 10.8234 9.76248 10.8234 9.46959 10.5305L7.99992 9.06082L6.53025 10.5305C6.23736 10.8234 5.76248 10.8234 5.46959 10.5305C5.1767 10.2376 5.1767 9.76273 5.46959 9.46983L6.93926 8.00016L5.46959 6.53049C5.1767 6.2376 5.1767 5.76273 5.46959 5.46983Z"/>
    </symbol>
    <symbol id="down" viewBox="0 0 20 20">
      <path d="M11.7084 11.6248L11.7084 11.6248C11.1067 12.2265 10.8059 12.5273 10.4634 12.6386C10.1621 12.7365 9.8376 12.7365 9.53634 12.6386C9.19385 12.5273 8.893 12.2265 8.29132 11.6248C6.9877 10.3212 6.33589 9.66936 6.29247 9.11769C6.2548 8.63901 6.44856 8.17123 6.81368 7.85939C7.23447 7.5 8.15627 7.5 9.99986 7.5C11.8435 7.5 12.7653 7.5 13.186 7.85939C13.5512 8.17123 13.7449 8.63901 13.7073 9.11769C13.6638 9.66936 13.012 10.3212 11.7084 11.6248Z"/>
    </symbol>
    <symbol id="menu-btn" viewBox="0 0 32 32">
      <path d="M6.4 11.734V9.6h19.2v2.134H6.4zm0 5.332h19.2v-2.133H6.4v2.133zm0 5.334h19.2v-2.134H6.4V22.4z"/>
    </symbol>
    <symbol id="menu-close" viewBox="0 0 32 32">
      <path d="M23.734 10.304 22.23 8.8l-5.963 5.962L10.305 8.8l-1.504 1.504 5.962 5.962-5.962 5.963 1.504 1.504 5.962-5.963 5.963 5.963 1.504-1.504-5.963-5.963 5.963-5.962z"/>
    </symbol>
    <symbol id="lightning" viewBox="0 0 32 32">
      <path d="M18.019.512c-.478-.168-.937.103-1.422.566-.494.472-1.094 1.222-1.875 2.198l-.011.014-9.44 11.8c-.592.74-1.05 1.313-1.322 1.777s-.396.884-.205 1.281.595.562 1.128.64c.532.078 1.266.078 2.214.078H11.2c.508 0 .87 0 1.144.037.268.036.423.104.536.217s.181.267.217.536c.037.274.037.635.037 1.144v6.47c0 1.25 0 2.21.091 2.887.089.665.279 1.163.756 1.33s.937-.103 1.422-.566c.494-.472 1.094-1.221 1.875-2.198l.011-.014 9.44-11.8c.592-.74 1.05-1.313 1.322-1.777s.395-.884.205-1.281c-.191-.397-.595-.562-1.128-.64s-1.267-.078-2.214-.078H20.8c-.508 0-.87 0-1.144-.037-.268-.036-.423-.104-.536-.217s-.18-.267-.217-.536c-.037-.274-.037-.635-.037-1.144v-6.47c0-1.25 0-2.21-.091-2.887-.089-.665-.279-1.163-.756-1.33z"/>
    </symbol>
    <symbol id="btc" viewBox="0 0 78 78">
      <path d="M16 1.231c8.157 0 14.769 6.612 14.769 14.769S24.157 30.769 16 30.769 1.231 24.157 1.231 16 7.843 1.231 16 1.231z"/>
      <path fill="#fff" style="fill:var(--color1, #fff)" d="M22.513 13.896c.294-1.965-1.202-3.022-3.249-3.727l.664-2.662-1.621-.404-.646 2.592c-.426-.106-.864-.206-1.299-.306l.651-2.609-1.62-.404-.664 2.662a55.35 55.35 0 0 1-1.035-.243l.002-.008-2.235-.558-.431 1.731s1.202.276 1.177.293c.656.164.775.598.755.943l-.756 3.033c.045.011.104.028.168.054l-.171-.042-1.06 4.249c-.08.199-.284.499-.743.385.016.024-1.178-.294-1.178-.294l-.805 1.855 2.109.526c.392.098.777.201 1.155.298l-.671 2.693 1.619.404.664-2.664c.442.12.871.231 1.292.335l-.662 2.652 1.621.404.671-2.688c2.764.523 4.842.312 5.716-2.188.705-2.012-.035-3.173-1.489-3.93 1.059-.244 1.857-.941 2.069-2.38zm-3.703 5.192c-.501 2.013-3.889.925-4.988.652l.89-3.568c1.099.274 4.621.817 4.098 2.916zm.501-5.221c-.457 1.831-3.277.901-4.192.673l.807-3.236c.915.228 3.861.654 3.385 2.563z"/>
    </symbol>
    <symbol id="ftm" viewBox="0 0 32 32">
      <path fill="#13b5ec" style="fill:var(--color2, #13b5ec)" d="M16 6.857a6.857 6.857 0 1 1 0 13.714 6.857 6.857 0 0 1 0-13.714z"/>
      <path fill="#fff" style="fill:var(--color1, #fff)" d="m16.514 12.386 1.543-.9v1.8l-1.543-.9zm1.543 3.857L16 17.443l-2.057-1.2v-2.1l2.057 1.2 2.057-1.2v2.1zm-4.114-4.757 1.543.9-1.543.9v-1.8zm2.314 1.328 1.543.9-1.543.9v-1.8zm-.514 1.8-1.543-.9 1.543-.9v1.8zm2.057-3.557L16 12.086l-1.8-1.029L16 9.986l1.8 1.071zm-4.371-.171V16.5L16 17.957l2.571-1.457v-5.614L16 9.429l-2.571 1.457z"/>
    </symbol>
    <symbol id="smart" viewBox="0 0 32 32">
      <path fill="#fff" style="fill:var(--color1, #fff)" d="M26.803 5.282a7.623 7.623 0 0 0-11.008 0l-.948.978a1.066 1.066 0 0 0 1.532 1.485l.948-.978a5.49 5.49 0 0 1 7.944 0c2.216 2.286 2.216 6.005 0 8.291l-2.26 2.331a4.986 4.986 0 0 1-7.215 0l-.364-.376a1.066 1.066 0 0 0-1.532 1.485l.364.376a7.119 7.119 0 0 0 10.279 0l2.26-2.331c3.018-3.113 3.018-8.147 0-11.26zM8.988 14.611a4.986 4.986 0 0 1 7.215 0l.364.376a1.066 1.066 0 0 0 1.532-1.485l-.364-.376a7.119 7.119 0 0 0-10.279 0l-2.26 2.331c-3.018 3.113-3.018 8.147 0 11.26a7.623 7.623 0 0 0 11.008 0l.948-.978a1.066 1.066 0 0 0-1.532-1.485l-.948.978a5.49 5.49 0 0 1-7.944 0c-2.216-2.286-2.216-6.005 0-8.291l2.26-2.331z"/>
    </symbol>
    <symbol id="address-1" viewBox="0 0 32 32">
      <path fill="#fff" style="fill:var(--color1, #fff)" opacity=".12" d="M12.444 7.111h7.111a5.333 5.333 0 0 1 5.333 5.333v7.111a5.333 5.333 0 0 1-5.333 5.333h-7.111a5.333 5.333 0 0 1-5.333-5.333v-7.111a5.333 5.333 0 0 1 5.333-5.333z"/>
      <path fill="#fff" style="fill:var(--color1, #fff)" d="M7.778 12A4.222 4.222 0 0 1 12 7.778h.444a.667.667 0 1 0 0-1.334H12A5.556 5.556 0 0 0 6.444 12v.444a.667.667 0 1 0 1.334 0V12zm11.778-5.556a.667.667 0 1 0 0 1.334H20A4.222 4.222 0 0 1 24.222 12v.444a.667.667 0 1 0 1.334 0V12A5.556 5.556 0 0 0 20 6.444h-.444zM7.778 19.556a.667.667 0 1 0-1.334 0V20A5.556 5.556 0 0 0 12 25.556h.444a.667.667 0 0 0 0-1.334H12A4.222 4.222 0 0 1 7.778 20v-.444zm17.778 0a.667.667 0 0 0-1.334 0V20A4.222 4.222 0 0 1 20 24.222h-.444a.667.667 0 0 0 0 1.334H20A5.556 5.556 0 0 0 25.556 20v-.444zM7.111 15.333a.667.667 0 0 0 0 1.334h17.778a.667.667 0 0 0 0-1.334H7.111z"/>
    </symbol>
    <symbol id="address-2" viewBox="0 0 32 32">
      <path fill="#fff" style="fill:var(--color1, #fff)" d="M7.499 9.052c-.388.761-.388 1.756-.388 3.748v1.067c0 1.991 0 2.987.388 3.748a3.558 3.558 0 0 0 1.554 1.554c.761.388 1.756.388 3.748.388h1.067c1.991 0 2.987 0 3.748-.388a3.558 3.558 0 0 0 1.554-1.554c.388-.761.388-1.756.388-3.748V12.8c0-1.991 0-2.987-.388-3.748a3.558 3.558 0 0 0-1.554-1.554c-.761-.388-1.756-.388-3.748-.388h-1.067c-1.991 0-2.987 0-3.748.388a3.558 3.558 0 0 0-1.554 1.554zm17.39 7.343V19.2c0 1.991 0 2.987-.388 3.748a3.558 3.558 0 0 1-1.554 1.554c-.761.388-1.756.388-3.748.388H16.27c-.252 0-.378 0-.484-.006a3.555 3.555 0 0 1-3.336-3.336c-.006-.106-.006-.232-.006-.484l.001-.06a.444.444 0 0 1 .409-.417l.06-.002.551-.01c2.447-.045 3.671-.068 4.604-.559a4.44 4.44 0 0 0 1.902-1.938c.473-.942.473-2.166.473-4.613v-.525c0-.046 0-.069.002-.088a.445.445 0 0 1 .404-.404c.019-.002.042-.002.088-.002.367 0 .55 0 .705.014a3.554 3.554 0 0 1 3.232 3.232c.014.155.014.338.014.705z"/>
    </symbol>
    <symbol id="clock" viewBox="0 0 37 32">
      <path fill="#fff" style="fill:var(--color1, #fff)" d="M.421 18.526C.421 8.527 8.527.421 18.526.421s18.105 8.106 18.105 18.105-8.106 18.105-18.105 18.105S.421 28.525.421 18.526zm19.368-6.737a1.263 1.263 0 0 0-2.526 0v6.737c0 .422.211.817.563 1.051l5.053 3.368a1.264 1.264 0 0 0 1.402-2.102l-4.49-2.994v-6.061z"/>
    </symbol>
    <symbol id="question" viewBox="0 0 32 32">
      <path fill="#fff" style="fill:var(--color1, #fff)" d="M16 1.467C7.973 1.467 1.467 7.974 1.467 16S7.974 30.533 16 30.533c8.027 0 14.533-6.507 14.533-14.533S24.026 1.467 16 1.467zm0 21.2A1.333 1.333 0 1 0 16 20a1.333 1.333 0 0 0 0 2.667zm0-10.8c-.81 0-1.467.657-1.467 1.467v.667a1.2 1.2 0 1 1-2.4 0v-.667a3.867 3.867 0 1 1 7.734 0v.162a4.025 4.025 0 0 1-1.18 2.848l-1.838 1.838a1.2 1.2 0 1 1-1.697-1.697l1.838-1.838a1.63 1.63 0 0 0 .477-1.152v-.162c0-.81-.657-1.467-1.467-1.467z"/>
    </symbol>
    <symbol id="gift" viewBox="0 0 32 32">
      <path fill="#fff" style="fill:var(--color1, #fff)" d="M22.5 6a1.833 1.833 0 0 0-1.833-1.833h-.107a1.94 1.94 0 0 0-1.858 1.383l-.685 2.284h2.651a1.833 1.833 0 0 0 1.833-1.833zm2.641 1.834a4.833 4.833 0 0 0-4.473-6.666h-.107a4.942 4.942 0 0 0-4.56 3.038 4.94 4.94 0 0 0-4.56-3.038h-.107a4.833 4.833 0 0 0-4.473 6.666H4.668a3.5 3.5 0 1 0 0 7h22.667a3.5 3.5 0 1 0 0-7h-2.193zm-13.807 0h2.651L13.3 5.55a1.94 1.94 0 0 0-1.858-1.383h-.107a1.833 1.833 0 1 0 0 3.666zm-2.759 7.999h14.852c.764-.001 1.495-.003 2.129.219a3.901 3.901 0 0 1 2.393 2.393c.222.634.221 1.365.219 2.129v.486c.001 2.105.002 3.543-.421 4.751a7.502 7.502 0 0 1-4.602 4.602c-1.207.422-2.646.422-4.751.421h-4.786c-2.105.001-3.543.001-4.751-.421a7.502 7.502 0 0 1-4.602-4.602c-.422-1.207-.422-2.646-.421-4.751v-.486c-.001-.764-.003-1.495.219-2.129a3.901 3.901 0 0 1 2.393-2.393c.634-.222 1.365-.221 2.129-.219z"/>
    </symbol>
    <symbol id="telegram" viewBox="0 0 32 32">
      <path d="m27.553 4.956-23.64 9.116c-1.613.648-1.604 1.548-.296 1.949l6.069 1.893 14.043-8.86c.664-.404 1.271-.187.772.256L13.124 19.579l-.419 6.256c.613 0 .884-.281 1.228-.613l2.948-2.867 6.132 4.529c1.131.623 1.943.303 2.224-1.047l4.025-18.971c.412-1.652-.631-2.4-1.709-1.912z"/>
    </symbol>
    <symbol id="discord" viewBox="0 0 32 32">
      <path d="M19.759 5.681c-.265.474-.501.964-.707 1.467a19.545 19.545 0 0 0-6.107 0 13.548 13.548 0 0 0-.707-1.467 21.375 21.375 0 0 0-5.507 1.733 23.103 23.103 0 0 0-4 15.453 22.132 22.132 0 0 0 6.76 3.453 17.196 17.196 0 0 0 1.48-2.32 12.867 12.867 0 0 1-2.28-1.107c.198-.132.385-.279.56-.44a15.546 15.546 0 0 0 13.494 0c.187.16.373.307.56.44a14.47 14.47 0 0 1-2.28 1.12c.413.83.894 1.624 1.44 2.373a21.943 21.943 0 0 0 6.747-3.453 22.956 22.956 0 0 0-4-15.453 21.447 21.447 0 0 0-5.453-1.8zm-8.187 14.066a2.587 2.587 0 0 1-2.4-2.667 2.572 2.572 0 0 1 2.4-2.667 2.574 2.574 0 0 1 2.4 2.667 2.575 2.575 0 0 1-2.4 2.667zm8.853 0a2.587 2.587 0 0 1-2.401-2.667 2.572 2.572 0 0 1 2.4-2.667 2.557 2.557 0 0 1 2.4 2.667 2.561 2.561 0 0 1-2.4 2.667z"/>
    </symbol>
    <symbol id="headphones" viewBox="0 0 32 32">
      <path d="M16 1.917C10.431 1.917 5.917 6.431 5.917 12v4.583h-.08c-.534 0-.98 0-1.344.03-.38.031-.737.098-1.074.27a2.754 2.754 0 0 0-1.202 1.202c-.172.337-.239.694-.27 1.074-.03.364-.03.81-.03 1.344v5.661c0 .534 0 .98.03 1.344.031.38.098.737.27 1.074.264.517.684.938 1.202 1.202.337.172.694.239 1.074.27.364.03.81.03 1.344.03h1.661c.534 0 .98 0 1.344-.03.38-.031.737-.098 1.074-.27a2.754 2.754 0 0 0 1.202-1.202c.172-.337.239-.694.27-1.074.03-.364.03-.81.03-1.344v-5.661c0-.534 0-.98-.03-1.344-.031-.38-.098-.736-.27-1.074a2.754 2.754 0 0 0-1.202-1.202c-.337-.172-.694-.239-1.074-.27-.364-.03-.81-.03-1.344-.03h-.08V12a8.583 8.583 0 0 1 17.166 0v4.583h-.081c-.534 0-.98 0-1.344.03-.38.031-.736.098-1.074.27a2.754 2.754 0 0 0-1.202 1.202c-.172.337-.239.694-.27 1.074-.03.364-.03.81-.03 1.344v5.661c0 .534 0 .98.03 1.344.031.38.098.737.27 1.074.264.517.684.938 1.202 1.202.337.172.694.239 1.074.27.364.03.81.03 1.344.03h1.661c.534 0 .98 0 1.344-.03.38-.031.737-.098 1.074-.27a2.754 2.754 0 0 0 1.202-1.202c.172-.337.239-.694.27-1.074.03-.364.03-.81.03-1.344v-5.661c0-.534 0-.98-.03-1.344-.031-.38-.098-.736-.27-1.074a2.754 2.754 0 0 0-1.202-1.202c-.337-.172-.694-.239-1.074-.27-.364-.03-.81-.03-1.344-.03h-.08V12c0-5.569-4.515-10.083-10.083-10.083z"/>
    </symbol>
    <symbol id="fire" viewBox="0 0 18 18">
      <path fill-rule="evenodd" clip-rule="evenodd" d="M9 1.5L9.32305 0.82314C9.09067 0.712234 8.81765 0.728285 8.59987 0.865657C8.38209 1.00303 8.25 1.24251 8.25 1.5C8.25 2.10696 8.27989 2.7758 8.30944 3.43683L8.30945 3.43699C8.31742 3.61526 8.32536 3.79296 8.33268 3.96872C8.36781 4.81186 8.38941 5.621 8.34521 6.32822C8.29994 7.05254 8.18952 7.57761 8.01955 7.90138C7.94018 8.05255 7.86196 8.13205 7.7966 8.1753C7.73673 8.21491 7.64944 8.25 7.5 8.25C7.25634 8.25 7.11521 8.19174 7.01961 8.12118C6.91691 8.04538 6.80173 7.90676 6.69636 7.64333C6.47355 7.08631 6.375 6.18441 6.375 4.875C6.375 4.58313 6.20567 4.31776 5.94096 4.1948C5.67625 4.07184 5.36424 4.11362 5.14121 4.3019L5.625 4.875C5.14121 4.3019 5.14099 4.30208 5.14076 4.30228L5.14024 4.30272L5.13903 4.30375L5.13589 4.30642L5.12678 4.31426L5.0977 4.33976C5.07365 4.3611 5.04045 4.39112 4.99942 4.42956C4.91741 4.5064 4.80378 4.6172 4.66915 4.75999C4.40044 5.04499 4.04484 5.46081 3.6893 5.99182C2.9811 7.04952 2.25 8.5999 2.25 10.5C2.25 14.3261 5.21359 17.25 9 17.25C12.7864 17.25 15.75 14.3261 15.75 10.5C15.75 7.16576 14.1151 4.73529 12.5273 3.16551C11.7326 2.37984 10.9398 1.79896 10.3452 1.41384C10.0473 1.22087 9.79738 1.0759 9.61942 0.977961C9.53038 0.928963 9.4592 0.891648 9.40885 0.865902C9.38367 0.853026 9.36369 0.843035 9.34927 0.835915L9.33185 0.827383L9.32635 0.824726L9.32443 0.8238L9.32367 0.823437C9.32335 0.823283 9.32305 0.82314 9 1.5Z" fill="white"/>
    </symbol>
    <symbol id="metamask" viewBox="0 0 60 59">
      <path d="m58.033 1-23.44 17.813 4.36-10.498L58.032 1ZM3.969 1l23.23 17.979-4.15-10.664L3.97 1ZM49.596 42.3l-6.237 9.786 13.355 3.776 3.825-13.347-10.943-.214ZM1.492 42.515l3.802 13.347 13.331-3.776-6.213-9.785-10.92.214Z" fill="#E1E3E5" stroke="#E1E3E5" stroke-width=".342" stroke-linecap="round" stroke-linejoin="round"/>
  <path d="m17.905 25.77-3.71 5.748 13.215.617-.44-14.606-9.065 8.241ZM44.1 25.77l-9.205-8.407-.301 14.773 13.215-.618-3.71-5.747ZM18.625 52.086l7.998-3.967-6.885-5.51-1.113 9.477ZM35.383 48.12l7.975 3.966-1.09-9.477-6.885 5.51Z" fill="#E1E3E5" stroke="#FFF0E1" stroke-width=".342" stroke-linecap="round" stroke-linejoin="round"/>
  <path d="m43.358 52.085-7.975-3.966.649 5.32-.07 2.256 7.396-3.61ZM18.625 52.085l7.419 3.61-.046-2.256.625-5.32-7.998 3.966Z" fill="#CBD0D3" stroke="#CBD0D3" stroke-width=".342" stroke-linecap="round" stroke-linejoin="round"/>
  <path d="M26.178 39.094 19.547 37.1l4.683-2.208 1.948 4.203ZM35.82 39.094l1.948-4.203 4.706 2.208-6.654 1.995Z" fill="#161616" stroke="#161616" stroke-width=".342" stroke-linecap="round" stroke-linejoin="round"/>
  <path d="m18.62 52.086 1.159-9.785-7.373.214 6.214 9.57ZM42.227 42.3l1.136 9.786 6.236-9.571-7.372-.214Z" fill="#D5D8DA" stroke="#D5D8DA" stroke-width=".342" stroke-linecap="round" stroke-linejoin="round"/>
  <path d="m47.809 31.518-13.215.617 1.228 6.959 1.948-4.204 4.706 2.209 5.333-5.581ZM19.55 37.099l4.684-2.209 1.948 4.204 1.228-6.959-13.215-.617 5.356 5.58Z" fill="#B5BDC3" stroke="#B5BDC3" stroke-width=".342" stroke-linecap="round" stroke-linejoin="round"/>
  <path d="m14.195 31.518 5.541 11.09-.185-5.51-5.356-5.58ZM42.482 37.099l-.209 5.51 5.541-11.091-5.332 5.58ZM27.409 32.135l-1.23 6.959 1.554 8.217.348-10.83-.672-4.346ZM34.595 32.135l-.65 4.322.325 10.854 1.553-8.217-1.228-6.96Z" fill="#E1E3E5" stroke="#E1E3E5" stroke-width=".342" stroke-linecap="round" stroke-linejoin="round"/>
  <path d="m35.827 39.095-1.554 8.217 1.113.808 6.886-5.51.209-5.51-6.654 1.995ZM19.547 37.1l.186 5.51 6.885 5.51 1.113-.808-1.553-8.217-6.631-1.995Z" fill="#fff" stroke="#fff" stroke-width=".342" stroke-linecap="round" stroke-linejoin="round"/>
  <path d="m35.967 55.696.07-2.256-.603-.523h-8.857l-.58.523.047 2.256-7.419-3.61 2.597 2.185L26.484 58h9.02l5.285-3.73 2.574-2.184-7.396 3.61Z" fill="#B5BEC3" stroke="#B5BEC3" stroke-width=".342" stroke-linecap="round" stroke-linejoin="round"/>
  <path d="m35.382 48.12-1.113-.807H27.73l-1.113.807-.626 5.32.58-.523h8.856l.603.523-.65-5.32Z" fill="#161616" stroke="#161616" stroke-width=".342" stroke-linecap="round" stroke-linejoin="round"/>
  <path d="m59.03 19.976 1.971-9.832L58.034 1 35.383 18.219 44.1 25.77l12.31 3.681 2.714-3.253-1.183-.88 1.878-1.756-1.437-1.14 1.878-1.473-1.23-.974ZM1 10.144l1.994 9.832-1.275.974 1.9 1.473-1.437 1.14L4.06 25.32l-1.182.879 2.712 3.253 12.311-3.68 8.718-7.553L3.968 1 1 10.144Z" fill="#B5BEC3" stroke="#B5BEC3" stroke-width=".342" stroke-linecap="round" stroke-linejoin="round"/>
  <path d="m56.416 29.45-12.311-3.68 3.71 5.747-5.542 11.091 7.327-.095h10.943l-4.127-13.062ZM17.907 25.77 5.596 29.45 1.492 42.514h10.92l7.326.095-5.54-11.09 3.709-5.748ZM34.593 32.136l.788-13.918 3.57-9.904H23.047l3.57 9.904.788 13.918.302 4.37.023 10.806h6.538l.023-10.806.302-4.37Z" fill="#fff" stroke="#fff" stroke-width=".342" stroke-linecap="round" stroke-linejoin="round"/>
    </symbol>
  </defs>
</svg>
