<svg width="36" height="36" viewBox="0 0 36 36" fill="none" xmlns="http://www.w3.org/2000/svg">
<path d="M22.2287 6.39062C21.9307 6.92416 21.6653 7.47515 21.4337 8.04062C19.1578 7.6807 16.8395 7.6807 14.5637 8.04062C14.332 7.47515 14.0666 6.92416 13.7687 6.39062C11.6248 6.75693 9.54076 7.41293 7.57366 8.34062C4.05607 13.4171 2.46081 19.5801 3.07365 25.7256C5.36601 27.4489 7.93884 28.7632 10.6787 29.6106C11.3025 28.7865 11.8593 27.9137 12.3437 27.0006C11.4498 26.671 10.5906 26.254 9.77866 25.7556C10.0013 25.6075 10.212 25.4419 10.4087 25.2606C12.7763 26.4011 15.3706 26.9933 17.9987 26.9933C20.6267 26.9933 23.221 26.4011 25.5887 25.2606C25.7987 25.4406 26.0087 25.6056 26.2187 25.7556C25.4023 26.2501 24.544 26.6717 23.6537 27.0156C24.1179 27.9494 24.6598 28.8426 25.2737 29.6856C28.01 28.8412 30.5784 27.5265 32.8637 25.8006C33.4912 19.6539 31.8947 13.4859 28.3637 8.41563C26.4186 7.46873 24.3552 6.78763 22.2287 6.39062ZM13.0187 22.2156C12.268 22.1617 11.5675 21.8192 11.064 21.2598C10.5606 20.7004 10.2934 19.9678 10.3187 19.2156C10.2896 18.4625 10.5555 17.7278 11.0597 17.1675C11.5639 16.6073 12.2666 16.2658 13.0187 16.2156C13.7707 16.2658 14.4734 16.6073 14.9776 17.1675C15.4818 17.7278 15.7477 18.4625 15.7187 19.2156C15.7477 19.9688 15.4818 20.7035 14.9776 21.2637C14.4734 21.8239 13.7707 22.1654 13.0187 22.2156ZM22.9787 22.2156C22.228 22.1617 21.5275 21.8192 21.024 21.2598C20.5206 20.7004 20.2534 19.9678 20.2787 19.2156C20.2496 18.4625 20.5155 17.7278 21.0197 17.1675C21.5239 16.6073 22.2266 16.2658 22.9787 16.2156C23.7321 16.2621 24.4371 16.6025 24.9421 17.1635C25.447 17.7246 25.7115 18.4615 25.6787 19.2156C25.7115 19.9697 25.447 20.7066 24.9421 21.2677C24.4371 21.8288 23.7321 22.1692 22.9787 22.2156Z" fill="#43A1F7"/>
</svg>
