<svg width="32" height="32" viewBox="0 0 32 32" fill="none" xmlns="http://www.w3.org/2000/svg">
<path fill-rule="evenodd" clip-rule="evenodd" d="M15.9998 1.9165C10.431 1.9165 5.9165 6.43097 5.9165 11.9998V16.5832H5.8665H5.83607C5.30192 16.5832 4.85607 16.5832 4.49183 16.6129C4.11195 16.6439 3.75529 16.7111 3.41803 16.8829C2.90058 17.1466 2.47989 17.5673 2.21624 18.0847C2.04439 18.422 1.97728 18.7786 1.94624 19.1585C1.91648 19.5227 1.91649 19.9686 1.9165 20.5027L1.9165 20.5332V26.1332L1.9165 26.1636C1.91649 26.6978 1.91648 27.1436 1.94624 27.5078C1.97728 27.8877 2.04439 28.2444 2.21624 28.5816C2.47989 29.0991 2.90058 29.5198 3.41803 29.7834C3.75529 29.9553 4.11195 30.0224 4.49183 30.0534C4.85602 30.0832 5.3018 30.0832 5.83587 30.0832H5.83605H5.8665H7.4665H7.49696H7.49714C8.03121 30.0832 8.47699 30.0832 8.84117 30.0534C9.22106 30.0224 9.57772 29.9553 9.91498 29.7834C10.4324 29.5198 10.8531 29.0991 11.1168 28.5816C11.2886 28.2444 11.3557 27.8877 11.3868 27.5078C11.4165 27.1436 11.4165 26.6978 11.4165 26.1637V26.1636V26.1332V20.5332V20.5027V20.5027C11.4165 19.9685 11.4165 19.5227 11.3868 19.1585C11.3557 18.7786 11.2886 18.422 11.1168 18.0847C10.8531 17.5673 10.4324 17.1466 9.91498 16.8829C9.57772 16.7111 9.22106 16.6439 8.84117 16.6129C8.47694 16.5832 8.03109 16.5832 7.49694 16.5832H7.4665H7.4165V11.9998C7.4165 7.2594 11.2594 3.4165 15.9998 3.4165C20.7403 3.4165 24.5832 7.25939 24.5832 11.9998V16.5832H24.5332H24.5027C23.9686 16.5832 23.5227 16.5832 23.1585 16.6129C22.7786 16.6439 22.422 16.7111 22.0847 16.8829C21.5673 17.1466 21.1466 17.5673 20.8829 18.0847C20.7111 18.422 20.6439 18.7786 20.6129 19.1585C20.5832 19.5227 20.5832 19.9686 20.5832 20.5027V20.5332V26.1332V26.1636C20.5832 26.6978 20.5832 27.1436 20.6129 27.5078C20.6439 27.8877 20.7111 28.2444 20.8829 28.5816C21.1466 29.0991 21.5673 29.5198 22.0847 29.7834C22.422 29.9553 22.7786 30.0224 23.1585 30.0534C23.5227 30.0832 23.9685 30.0832 24.5025 30.0832H24.5027H24.5332H26.1332H26.1636H26.1638C26.6979 30.0832 27.1437 30.0832 27.5078 30.0534C27.8877 30.0224 28.2444 29.9553 28.5816 29.7834C29.0991 29.5198 29.5198 29.0991 29.7834 28.5816C29.9553 28.2444 30.0224 27.8877 30.0534 27.5078C30.0832 27.1437 30.0832 26.6979 30.0832 26.1638V26.1636V26.1332V20.5332V20.5027V20.5025C30.0832 19.9685 30.0832 19.5227 30.0534 19.1585C30.0224 18.7786 29.9553 18.422 29.7834 18.0847C29.5198 17.5673 29.0991 17.1466 28.5816 16.8829C28.2444 16.7111 27.8877 16.6439 27.5078 16.6129C27.1436 16.5832 26.6978 16.5832 26.1636 16.5832H26.1332H26.0832V11.9998C26.0832 6.43097 21.5687 1.9165 15.9998 1.9165Z" fill="#43A1F7"/>
</svg>
