<svg width="62" height="59" fill="none" xmlns="http://www.w3.org/2000/svg">
  <path d="m58.033 1-23.44 17.813 4.36-10.498L58.032 1ZM3.969 1l23.23 17.979-4.15-10.664L3.97 1ZM49.596 42.3l-6.237 9.786 13.355 3.776 3.825-13.347-10.943-.214ZM1.492 42.515l3.802 13.347 13.331-3.776-6.213-9.785-10.92.214Z" fill="#E1E3E5" stroke="#E1E3E5" stroke-width=".342" stroke-linecap="round" stroke-linejoin="round"/>
  <path d="m17.905 25.77-3.71 5.748 13.215.617-.44-14.606-9.065 8.241ZM44.1 25.77l-9.205-8.407-.301 14.773 13.215-.618-3.71-5.747ZM18.625 52.086l7.998-3.967-6.885-5.51-1.113 9.477ZM35.383 48.12l7.975 3.966-1.09-9.477-6.885 5.51Z" fill="#E1E3E5" stroke="#FFF0E1" stroke-width=".342" stroke-linecap="round" stroke-linejoin="round"/>
  <path d="m43.358 52.085-7.975-3.966.649 5.32-.07 2.256 7.396-3.61ZM18.625 52.085l7.419 3.61-.046-2.256.625-5.32-7.998 3.966Z" fill="#CBD0D3" stroke="#CBD0D3" stroke-width=".342" stroke-linecap="round" stroke-linejoin="round"/>
  <path d="M26.178 39.094 19.547 37.1l4.683-2.208 1.948 4.203ZM35.82 39.094l1.948-4.203 4.706 2.208-6.654 1.995Z" fill="#161616" stroke="#161616" stroke-width=".342" stroke-linecap="round" stroke-linejoin="round"/>
  <path d="m18.62 52.086 1.159-9.785-7.373.214 6.214 9.57ZM42.227 42.3l1.136 9.786 6.236-9.571-7.372-.214Z" fill="#D5D8DA" stroke="#D5D8DA" stroke-width=".342" stroke-linecap="round" stroke-linejoin="round"/>
  <path d="m47.809 31.518-13.215.617 1.228 6.959 1.948-4.204 4.706 2.209 5.333-5.581ZM19.55 37.099l4.684-2.209 1.948 4.204 1.228-6.959-13.215-.617 5.356 5.58Z" fill="#B5BDC3" stroke="#B5BDC3" stroke-width=".342" stroke-linecap="round" stroke-linejoin="round"/>
  <path d="m14.195 31.518 5.541 11.09-.185-5.51-5.356-5.58ZM42.482 37.099l-.209 5.51 5.541-11.091-5.332 5.58ZM27.409 32.135l-1.23 6.959 1.554 8.217.348-10.83-.672-4.346ZM34.595 32.135l-.65 4.322.325 10.854 1.553-8.217-1.228-6.96Z" fill="#E1E3E5" stroke="#E1E3E5" stroke-width=".342" stroke-linecap="round" stroke-linejoin="round"/>
  <path d="m35.827 39.095-1.554 8.217 1.113.808 6.886-5.51.209-5.51-6.654 1.995ZM19.547 37.1l.186 5.51 6.885 5.51 1.113-.808-1.553-8.217-6.631-1.995Z" fill="#fff" stroke="#fff" stroke-width=".342" stroke-linecap="round" stroke-linejoin="round"/>
  <path d="m35.967 55.696.07-2.256-.603-.523h-8.857l-.58.523.047 2.256-7.419-3.61 2.597 2.185L26.484 58h9.02l5.285-3.73 2.574-2.184-7.396 3.61Z" fill="#B5BEC3" stroke="#B5BEC3" stroke-width=".342" stroke-linecap="round" stroke-linejoin="round"/>
  <path d="m35.382 48.12-1.113-.807H27.73l-1.113.807-.626 5.32.58-.523h8.856l.603.523-.65-5.32Z" fill="#161616" stroke="#161616" stroke-width=".342" stroke-linecap="round" stroke-linejoin="round"/>
  <path d="m59.03 19.976 1.971-9.832L58.034 1 35.383 18.219 44.1 25.77l12.31 3.681 2.714-3.253-1.183-.88 1.878-1.756-1.437-1.14 1.878-1.473-1.23-.974ZM1 10.144l1.994 9.832-1.275.974 1.9 1.473-1.437 1.14L4.06 25.32l-1.182.879 2.712 3.253 12.311-3.68 8.718-7.553L3.968 1 1 10.144Z" fill="#B5BEC3" stroke="#B5BEC3" stroke-width=".342" stroke-linecap="round" stroke-linejoin="round"/>
  <path d="m56.416 29.45-12.311-3.68 3.71 5.747-5.542 11.091 7.327-.095h10.943l-4.127-13.062ZM17.907 25.77 5.596 29.45 1.492 42.514h10.92l7.326.095-5.54-11.09 3.709-5.748ZM34.593 32.136l.788-13.918 3.57-9.904H23.047l3.57 9.904.788 13.918.302 4.37.023 10.806h6.538l.023-10.806.302-4.37Z" fill="#fff" stroke="#fff" stroke-width=".342" stroke-linecap="round" stroke-linejoin="round"/>
</svg>
